<svg width="42" height="42" fill="none" xmlns="http://www.w3.org/2000/svg"><path fill-rule="evenodd" clip-rule="evenodd" d="M27.054 1c4.016 0 6.023 0 8.185.683a8.495 8.495 0 0 1 5.078 5.078C41 8.922 41 10.931 41 14.946v12.108c0 4.016 0 6.023-.683 8.185a8.494 8.494 0 0 1-5.078 5.077C33.077 41 31.07 41 27.054 41H14.946c-4.016 0-6.024 0-8.185-.684a8.494 8.494 0 0 1-5.078-5.077C1 33.077 1 31.07 1 27.054V14.946c0-4.016 0-6.024.683-8.185a8.495 8.495 0 0 1 5.078-5.078C8.922 1 10.93 1 14.946 1h12.108Z" fill="#18191E" stroke="#F5F5F5" stroke-width=".5"/><rect x="20.333" y="6.333" width="15.333" height="15.333" rx="4" fill="#fff"/></svg>