<svg width="382" height="382" viewBox="0 0 382 382" fill="none" xmlns="http://www.w3.org/2000/svg">
<path opacity="0.7" d="M51.8774 127.663C51.8774 127.663 30.5618 182.671 60.5106 238.061C90.4594 293.451 152.114 322.712 201.469 347.695C250.823 372.678 302.087 360.53 326.383 319.58C350.754 278.63 317.367 249.368 317.291 190.922C317.215 132.476 326.001 117.044 294.371 67.6128C262.818 18.2584 185.119 7.3332 126.444 43.9288C67.6922 80.6008 51.8774 127.663 51.8774 127.663Z" fill="#E9E9E9"/>
<path d="M41.2578 338.754H340.746" stroke="#36373C" stroke-width="0.764" stroke-miterlimit="10" stroke-linecap="round" stroke-linejoin="round"/>
<path d="M101.913 338.761C101.913 338.761 100.615 333.795 102.143 331.962C104.893 328.677 101.837 325.85 104.587 324.704L105.733 326.079C105.963 324.704 105.351 320.578 110.394 320.043C116.582 319.356 116.659 323.863 117.041 325.391L116.964 323.329C119.562 323.329 118.263 325.926 122.236 330.281C125.292 333.566 125.292 337.768 125.139 338.914H101.913V338.761Z" fill="#36373C"/>
<path d="M148.981 338.763C146.536 337.617 148.752 328.296 148.752 328.296C148.752 328.296 145.39 326.081 148.752 323.712C148.752 323.712 152.495 327.379 158.225 325.24C158.225 325.24 158.913 318.975 162.809 319.816C162.809 319.816 163.803 323.789 166.095 326.081C172.359 332.193 180.381 332.957 181.68 335.86C182.062 336.777 181.604 338.763 181.604 338.763H148.981Z" fill="#36373C"/>
<path d="M138.355 189.399L141.411 195.893C141.411 195.893 154.017 222.022 161.809 251.894C161.962 252.582 166.011 266.792 162.803 302.013L164.636 308.201L162.65 318.439C162.65 318.439 165.629 322.793 165.553 324.169C165.553 324.169 158.142 325.544 155.621 326.919C153.711 327.989 147.905 333.642 147.905 333.642C146.3 333.337 146.147 326.69 146.147 326.69C146.147 326.69 142.709 267.786 141.716 265.264C140.723 262.743 134.687 251.818 125.29 226.759C125.29 226.759 125.061 261.75 122.54 270.536C120.324 278.405 122.922 300.408 122.922 300.408L121.394 324.933C121.394 324.933 126.665 330.433 122.387 331.885C122.387 331.885 119.56 326.384 111.385 325.085C107.26 324.474 102.065 331.809 102.065 331.809C100.231 331.197 102.829 321.953 102.829 321.953C97.0222 278.329 101.301 286.198 100.155 264.882C99.3906 251.207 95.4942 192.608 100.078 187.871L138.355 189.399Z" fill="#A3A3A5"/>
<path opacity="0.2" d="M98.0156 209.568C118.414 211.173 136.139 204.526 143.779 201.011C142.328 197.726 141.411 195.893 141.411 195.893L138.355 189.399L100.155 188.023C98.5504 189.704 98.0156 198.49 98.0156 209.568Z" fill="#18191E"/>
<path opacity="0.2" d="M125.445 227.215C134.766 251.892 140.725 262.741 141.719 265.262C142.253 266.714 143.629 286.73 144.698 303.462C145.921 288.182 147.219 272.062 147.296 268.929C147.525 262.664 142.941 254.031 142.33 251.816C141.642 249.6 143.17 247.155 143.17 247.155L134.995 236.841C135.301 233.327 130.946 218.047 130.946 218.047C128.349 220.568 126.057 225.763 125.445 227.215Z" fill="#18191E"/>
<path d="M138.355 189.399L141.411 195.893C141.411 195.893 154.017 222.022 161.809 251.894C161.962 252.582 166.011 266.792 162.803 302.013L164.636 308.201L162.65 318.439C162.65 318.439 165.629 322.793 165.553 324.169C165.553 324.169 158.142 325.544 155.621 326.919C153.711 327.989 147.905 333.642 147.905 333.642C146.3 333.337 146.147 326.69 146.147 326.69C146.147 326.69 142.709 267.786 141.716 265.264C140.723 262.743 134.687 251.818 125.29 226.759C125.29 226.759 125.061 261.75 122.54 270.536C120.324 278.405 122.922 300.408 122.922 300.408L121.394 324.933C121.394 324.933 126.665 330.433 122.387 331.885C122.387 331.885 119.56 326.384 111.385 325.085C107.26 324.474 102.065 331.809 102.065 331.809C100.231 331.197 102.829 321.953 102.829 321.953C97.0222 278.329 101.301 286.198 100.155 264.882C99.3906 251.207 95.4942 192.608 100.078 187.871L138.355 189.399Z" stroke="#36373C" stroke-width="0.764" stroke-miterlimit="10" stroke-linecap="round" stroke-linejoin="round"/>
<path d="M125.289 226.759C125.289 226.759 129.949 217.744 133.922 215.223" stroke="#36373C" stroke-width="0.764" stroke-miterlimit="10" stroke-linecap="round" stroke-linejoin="round"/>
<path d="M135.678 212.32C135.678 212.32 121.468 216.599 116.578 217.439" stroke="#36373C" stroke-width="0.764" stroke-miterlimit="10" stroke-linecap="round" stroke-linejoin="round"/>
<path d="M128.419 197.879C129.031 209.721 133.233 211.707 129.183 214.305C129.183 214.305 129.26 219.806 127.273 223.32" stroke="#36373C" stroke-width="0.764" stroke-miterlimit="10" stroke-linecap="round" stroke-linejoin="round"/>
<path d="M103.592 193.371C103.592 193.371 105.273 211.554 99.6953 214.916" stroke="#36373C" stroke-width="0.764" stroke-miterlimit="10" stroke-linecap="round" stroke-linejoin="round"/>
<path d="M99.6932 199.176C99.6932 199.176 99.3112 211.247 99.6932 221.026C99.6932 221.026 101.068 262.206 102.52 267.325C103.895 272.52 100.381 280.313 100.686 302.621" stroke="#36373C" stroke-width="0.764" stroke-miterlimit="10" stroke-linecap="round" stroke-linejoin="round"/>
<path d="M113.068 320.12C111.769 319.891 110.318 319.967 109.172 320.655" stroke="#36373C" stroke-width="0.764" stroke-miterlimit="10" stroke-linecap="round" stroke-linejoin="round"/>
<path d="M121.473 325.008C119.716 323.328 117.653 321.876 115.438 320.883" stroke="#36373C" stroke-width="0.764" stroke-miterlimit="10" stroke-linecap="round" stroke-linejoin="round"/>
<path d="M119.178 229.66C116.046 233.175 111.08 239.821 105.961 240.356" stroke="#36373C" stroke-width="0.764" stroke-miterlimit="10" stroke-linecap="round" stroke-linejoin="round"/>
<path d="M123.987 223.93C122.994 225.152 122.001 226.374 121.008 227.52" stroke="#36373C" stroke-width="0.764" stroke-miterlimit="10" stroke-linecap="round" stroke-linejoin="round"/>
<path d="M119.486 265.035C119.486 265.035 112.381 274.738 108.484 275.273" stroke="#36373C" stroke-width="0.764" stroke-miterlimit="10" stroke-linecap="round" stroke-linejoin="round"/>
<path d="M127.891 225.004C127.891 225.004 140.573 260.301 145.004 263.815C145.004 263.815 145.539 289.791 145.615 298.883C145.768 307.974 147.831 320.046 147.831 320.046" stroke="#36373C" stroke-width="0.764" stroke-miterlimit="10" stroke-linecap="round" stroke-linejoin="round"/>
<path d="M161.35 319.738C161.35 319.738 156.46 321.419 154.092 322.489C151.723 323.558 150.883 325.927 150.883 325.927" stroke="#36373C" stroke-width="0.764" stroke-miterlimit="10" stroke-linecap="round" stroke-linejoin="round"/>
<path d="M149.054 251.129C142.254 246.851 133.239 241.503 129.648 234.016" stroke="#36373C" stroke-width="0.764" stroke-miterlimit="10" stroke-linecap="round" stroke-linejoin="round"/>
<path d="M154.937 254.645C153.638 253.958 152.416 253.194 151.117 252.43" stroke="#36373C" stroke-width="0.764" stroke-miterlimit="10" stroke-linecap="round" stroke-linejoin="round"/>
<path d="M133.538 202.613C129.871 202.537 125.898 202.078 122.766 200.016" stroke="#36373C" stroke-width="0.764" stroke-miterlimit="10" stroke-linecap="round" stroke-linejoin="round"/>
<path d="M139.351 202.312C138.282 202.465 137.212 202.542 136.219 202.618" stroke="#36373C" stroke-width="0.764" stroke-miterlimit="10" stroke-linecap="round" stroke-linejoin="round"/>
<path d="M146.151 121.174C143.324 116.972 129.114 115.826 119.946 115.826C110.778 115.826 99.7 114.298 94.6576 124.612C90.8376 132.481 99.6236 174.119 99.6236 174.119L97.4844 192.073C114.063 197.268 142.408 196.122 142.408 196.122L138.588 179.849C138.588 180.002 148.902 125.452 146.151 121.174Z" fill="#36373C"/>
<path d="M114.521 105.438C114.521 105.438 115.744 115.217 112 117.356C112 117.356 113.834 124.538 120.404 124.996C126.898 125.454 129.878 118.425 129.878 118.425L114.521 105.438Z" fill="white" stroke="#36373C" stroke-width="0.764" stroke-miterlimit="10" stroke-linecap="round" stroke-linejoin="round"/>
<path d="M168.533 91.9129L148.974 93.7465L147.905 81.8281C147.828 81.0641 148.44 80.3001 149.204 80.3001L165.935 78.7721C166.699 78.6957 167.463 79.3069 167.463 80.0709L168.533 91.9129Z" fill="#F5F5F5"/>
<path opacity="0.3" d="M168.533 91.9129L148.974 93.7465L147.905 81.8281C147.828 81.0641 148.44 80.3001 149.204 80.3001L165.935 78.7721C166.699 78.6957 167.463 79.3069 167.463 80.0709L168.533 91.9129Z" fill="black" fill-opacity="0.7"/>
<path opacity="0.3" d="M166.402 79.9484L161.609 80.3906L162.501 90.0527L167.294 89.6104L166.402 79.9484Z" fill="white" fill-opacity="0.7"/>
<path d="M168.533 91.9129L148.974 93.7465L147.905 81.8281C147.828 81.0641 148.44 80.3001 149.204 80.3001L165.935 78.7721C166.699 78.6957 167.463 79.3069 167.463 80.0709L168.533 91.9129Z" stroke="#36373C" stroke-width="0.764" stroke-miterlimit="10" stroke-linecap="round" stroke-linejoin="round"/>
<path d="M197.486 89.3191L177.928 91.1527L176.858 79.2343C176.782 78.4703 177.393 77.7063 178.157 77.7063L194.888 76.1783C195.652 76.1019 196.416 76.7131 196.416 77.4771L197.486 89.3191Z" fill="#F5F5F5"/>
<path opacity="0.3" d="M197.486 89.3191L177.928 91.1527L176.858 79.2343C176.782 78.4703 177.393 77.7063 178.157 77.7063L194.888 76.1783C195.652 76.1019 196.416 76.7131 196.416 77.4771L197.486 89.3191Z" fill="black" fill-opacity="0.7"/>
<path opacity="0.3" d="M194.977 77.2879L192.086 77.5547L192.978 87.2167L195.869 86.95L194.977 77.2879Z" fill="white" fill-opacity="0.7"/>
<path d="M197.486 89.3191L177.928 91.1527L176.858 79.2343C176.782 78.4703 177.393 77.7063 178.157 77.7063L194.888 76.1783C195.652 76.1019 196.416 76.7131 196.416 77.4771L197.486 89.3191Z" stroke="#36373C" stroke-width="0.764" stroke-miterlimit="10" stroke-linecap="round" stroke-linejoin="round"/>
<path d="M191.377 89.8504L171.818 91.684L170.749 79.7656C170.672 79.0016 171.283 78.2376 172.047 78.2376L188.779 76.7096C189.543 76.6332 190.307 77.2444 190.307 78.0084L191.377 89.8504Z" fill="#F5F5F5" stroke="#36373C" stroke-width="0.764" stroke-miterlimit="10" stroke-linecap="round" stroke-linejoin="round"/>
<path d="M220.259 87.1785L200.701 89.0121L199.631 77.0937C199.555 76.3297 200.166 75.5657 200.93 75.5657L217.662 74.0377C218.426 73.9613 219.19 74.5725 219.19 75.3365L220.259 87.1785Z" fill="#F5F5F5" stroke="#36373C" stroke-width="0.764" stroke-miterlimit="10" stroke-linecap="round" stroke-linejoin="round"/>
<path opacity="0.3" d="M189.168 77.8116L184.375 78.2539L185.267 87.916L190.06 87.4736L189.168 77.8116Z" fill="white" fill-opacity="0.7"/>
<path opacity="0.3" d="M217.824 75.214L213.031 75.6562L213.923 85.3183L218.716 84.876L217.824 75.214Z" fill="white" fill-opacity="0.7"/>
<path d="M228.584 83.5893L233.627 138.521L145.156 146.696L140.113 91.7641C139.96 89.8541 141.336 88.1733 143.246 88.0205L224.841 80.4569C226.751 80.3041 228.432 81.6793 228.584 83.5893Z" fill="#F5F5F5"/>
<path opacity="0.3" d="M228.584 83.5893L233.627 138.521L145.156 146.696L140.113 91.7641C139.96 89.8541 141.336 88.1733 143.246 88.0205L224.841 80.4569C226.751 80.3041 228.432 81.6793 228.584 83.5893Z" fill="black" fill-opacity="0.7"/>
<path d="M228.584 83.5893L233.627 138.521L145.156 146.696L140.113 91.7641C139.96 89.8541 141.336 88.1733 143.246 88.0205L224.841 80.4569C226.751 80.3041 228.432 81.6793 228.584 83.5893Z" stroke="#36373C" stroke-width="0.764" stroke-miterlimit="10" stroke-linecap="round" stroke-linejoin="round"/>
<path d="M228.585 83.5854L233.627 138.517L167.999 144.553L162.957 89.621C162.804 87.711 164.179 86.0302 166.089 85.8774L224.841 80.453C226.751 80.3002 228.432 81.6754 228.585 83.5854Z" fill="#F5F5F5" stroke="#36373C" stroke-width="0.764" stroke-miterlimit="10" stroke-linecap="round" stroke-linejoin="round"/>
<path opacity="0.3" d="M224.306 85.9544L168.152 91.1496C167.388 91.226 166.7 90.6148 166.624 89.8508C166.547 89.0868 167.158 88.3992 167.922 88.3228L224.076 83.1276C224.84 83.0512 225.528 83.6624 225.604 84.4264C225.681 85.1904 225.146 85.878 224.306 85.9544Z" fill="white" fill-opacity="0.7"/>
<path d="M125.679 86.0318C125.679 86.0318 112.767 83.4342 111.316 91.7618C109.864 100.089 114.601 103.604 114.601 103.604L125.679 86.0318Z" fill="#36373C"/>
<path d="M114.597 108.187C113.299 104.443 112.764 100.088 113.91 95.2752C115.209 89.9272 121.55 82.5928 131.176 89.2396C136.142 92.6776 136.448 100.165 134.92 107.041C134.538 108.645 134.843 110.25 134.309 111.778C132.399 117.049 128.884 121.098 126.974 121.175C123.765 121.328 117.424 117.508 117.653 114.146" fill="white"/>
<path d="M114.597 108.187C113.299 104.443 112.764 100.088 113.91 95.2752C115.209 89.9272 121.55 82.5928 131.176 89.2396C136.142 92.6776 136.448 100.165 134.92 107.041C134.538 108.645 134.843 110.25 134.309 111.778C132.399 117.049 128.884 121.098 126.974 121.175C123.765 121.328 117.424 117.508 117.653 114.146" stroke="#36373C" stroke-width="0.764" stroke-miterlimit="10" stroke-linecap="round" stroke-linejoin="round"/>
<path d="M127.511 105.746C127.511 105.746 124.914 103.912 122.469 105.44" stroke="#36373C" stroke-width="0.764" stroke-miterlimit="10" stroke-linecap="round" stroke-linejoin="round"/>
<path d="M132.398 105.439C132.398 105.439 134.308 103.682 135.607 103.911" stroke="#36373C" stroke-width="0.764" stroke-miterlimit="10" stroke-linecap="round" stroke-linejoin="round"/>
<path d="M124.379 109.489C124.674 109.489 124.913 109.113 124.913 108.649C124.913 108.185 124.674 107.809 124.379 107.809C124.083 107.809 123.844 108.185 123.844 108.649C123.844 109.113 124.083 109.489 124.379 109.489Z" fill="#36373C"/>
<path d="M132.402 109.028C132.697 109.028 132.937 108.652 132.937 108.188C132.937 107.724 132.697 107.348 132.402 107.348C132.107 107.348 131.867 107.724 131.867 108.188C131.867 108.652 132.107 109.028 132.402 109.028Z" fill="#36373C"/>
<path d="M131.256 107.273C130.339 108.496 131.638 113.233 131.256 113.538C130.874 113.844 128.429 112.927 128.429 112.927C128.429 112.927 127.895 112.239 129.041 111.857" stroke="#36373C" stroke-width="0.764" stroke-miterlimit="10" stroke-linecap="round" stroke-linejoin="round"/>
<path d="M129.04 115.91C129.04 115.91 125.754 115.91 124.914 114.688" stroke="#36373C" stroke-width="0.764" stroke-miterlimit="10" stroke-linecap="round" stroke-linejoin="round"/>
<path d="M121.321 98.2601L121.091 102.233C121.091 102.233 118.265 103.685 117.577 105.136C116.889 106.588 117.119 108.192 117.119 108.192C117.119 108.192 115.438 105.213 114.521 105.442C114.215 105.518 114.215 106.741 114.215 106.741C114.215 106.741 110.395 98.1837 113.833 93.6761C117.271 89.1685 121.321 98.2601 121.321 98.2601Z" fill="#7E7E7E" stroke="#36373C" stroke-width="0.764" stroke-miterlimit="10" stroke-linecap="round" stroke-linejoin="round"/>
<path d="M115.898 107.271C115.898 107.271 115.134 104.444 112.537 103.68C109.939 102.916 111.696 109.792 113.912 110.709C116.127 111.626 116.662 112.237 116.815 111.397" fill="white"/>
<path d="M115.898 107.271C115.898 107.271 115.134 104.444 112.537 103.68C109.939 102.916 111.696 109.792 113.912 110.709C116.127 111.626 116.662 112.237 116.815 111.397" stroke="#36373C" stroke-width="0.764" stroke-miterlimit="10" stroke-linecap="round" stroke-linejoin="round"/>
<path d="M112.385 97.723C112.156 97.4174 111.239 90.083 116.052 86.7978C120.866 83.5126 129.117 83.8182 134.312 88.4022C139.507 92.9862 138.056 100.855 134.312 103.606V100.321C134.312 100.321 132.555 103.606 127.436 103.911L129.04 101.467C129.04 101.467 126.519 102.995 122.012 102.842C122.012 102.842 124.074 101.161 123.845 99.7094C123.845 99.7094 116.74 103.682 112.385 97.723Z" fill="#36373C"/>
<path d="M113.303 124.231C109.712 124.689 104.67 129.35 107.955 137.601C110.094 142.873 127.437 139.74 127.437 139.74C133.855 137.066 143.328 127.516 150.204 123.085C150.204 123.085 148.753 113.917 147.072 115.216C139.279 121.175 132.861 121.633 121.936 126.829C122.013 126.829 115.595 124.002 113.303 124.231Z" fill="white" stroke="#36373C" stroke-width="0.764" stroke-miterlimit="10" stroke-linecap="round" stroke-linejoin="round"/>
<path d="M121.323 134.391C121.247 137.829 122.622 138.44 124.991 139.204L121.323 134.391Z" fill="white"/>
<path d="M121.323 134.391C121.247 137.829 122.622 138.44 124.991 139.204" stroke="#36373C" stroke-width="0.764" stroke-miterlimit="10" stroke-linecap="round" stroke-linejoin="round"/>
<path d="M146.609 115.905C146.762 115.447 149.665 110.328 150.506 109.029C151.346 107.73 155.013 106.584 156.389 105.82C157.764 105.056 157.917 103.834 158.681 104.674C159.521 105.515 158.681 107.425 154.479 109.487C154.479 109.487 157.84 109.64 158.986 109.487C160.132 109.335 161.125 108.265 161.66 109.029C162.195 109.717 162.271 111.015 159.75 111.779C157.229 112.543 156.007 112.543 156.007 112.543C156.007 112.543 159.215 113.307 159.597 113.613C159.979 113.919 160.591 114.606 161.202 114.683C161.813 114.759 162.424 115.447 161.355 116.211C160.209 116.975 158.757 116.287 158.757 116.287C158.757 116.287 161.66 117.662 160.743 118.579C159.827 119.496 156.923 119.267 156.923 119.267C156.923 119.267 152.569 124.538 148.978 123.392" fill="white"/>
<path d="M146.609 115.905C146.762 115.447 149.665 110.328 150.506 109.029C151.346 107.73 155.013 106.584 156.389 105.82C157.764 105.056 157.917 103.834 158.681 104.674C159.521 105.515 158.681 107.425 154.479 109.487C154.479 109.487 157.84 109.64 158.986 109.487C160.132 109.335 161.125 108.265 161.66 109.029C162.195 109.717 162.271 111.015 159.75 111.779C157.229 112.543 156.007 112.543 156.007 112.543C156.007 112.543 159.215 113.307 159.597 113.613C159.979 113.919 160.591 114.606 161.202 114.683C161.813 114.759 162.424 115.447 161.355 116.211C160.209 116.975 158.757 116.287 158.757 116.287C158.757 116.287 161.66 117.662 160.743 118.579C159.827 119.496 156.923 119.267 156.923 119.267C156.923 119.267 152.569 124.538 148.978 123.392" stroke="#36373C" stroke-width="0.764" stroke-miterlimit="10" stroke-linecap="round" stroke-linejoin="round"/>
<path d="M151.805 109.027C151.805 109.027 152.645 109.104 152.874 110.021C153.103 110.937 153.867 111.014 154.326 112.007C154.784 113 154.631 114.605 155.09 115.139C155.548 115.674 155.09 117.966 155.09 117.966" stroke="#36373C" stroke-width="0.764" stroke-miterlimit="10" stroke-linecap="round" stroke-linejoin="round"/>
<path d="M114.067 123.622C112.157 121.253 108.031 122.323 108.031 122.323" stroke="white" stroke-width="0.764" stroke-miterlimit="10" stroke-linecap="round" stroke-linejoin="round"/>
<path d="M105.734 117.895C105.734 117.895 110.089 118.506 111.312 122.097" stroke="white" stroke-width="0.764" stroke-miterlimit="10" stroke-linecap="round" stroke-linejoin="round"/>
<path d="M113.299 140.659C113.299 140.659 109.097 143.944 102.68 139.207" stroke="white" stroke-width="0.764" stroke-miterlimit="10" stroke-linecap="round" stroke-linejoin="round"/>
<path d="M108.03 141.652C108.03 141.652 105.891 144.632 100.695 144.556" stroke="white" stroke-width="0.764" stroke-miterlimit="10" stroke-linecap="round" stroke-linejoin="round"/>
<path d="M134.771 178.859C134.771 178.859 123.77 187.645 112.539 186.499" stroke="white" stroke-width="0.764" stroke-miterlimit="10" stroke-linecap="round" stroke-linejoin="round"/>
<path d="M104.969 159.531C104.969 159.531 122.082 172.061 134.765 172.901" stroke="white" stroke-width="0.764" stroke-miterlimit="10" stroke-linecap="round" stroke-linejoin="round"/>
<path d="M251.126 161.289L248.07 177.868L223.164 192.995L226.602 199.336C226.602 199.336 255.405 190.55 256.092 188.487C256.78 186.425 263.427 164.651 263.427 164.651L251.126 161.289Z" fill="#36373C"/>
<path d="M262.058 133.176L260.377 153.345L259.537 163.889C254.724 166.257 250.063 162.743 249.758 162.513C251.057 158.693 252.508 136.996 262.058 133.176Z" fill="#999999" stroke="#36373C" stroke-width="0.764" stroke-miterlimit="10" stroke-linecap="round" stroke-linejoin="round"/>
<path d="M260.377 153.341L259.537 163.884C254.724 166.253 250.063 162.738 249.758 162.509C249.987 162.585 252.508 163.655 254.113 162.509C254.113 162.509 252.661 160.905 252.585 160.523C252.508 160.141 254.113 159.988 254.113 159.988C254.113 159.988 253.043 151.431 255.87 147.84C256.939 146.389 258.697 149.292 260.377 153.341Z" fill="#36373C"/>
<path d="M279.318 319.668L280.082 321.884C280.082 321.884 278.249 324.94 276.186 327.308C276.186 327.308 275.422 327.079 274.199 328.148C272.977 329.294 272.824 331.052 272.824 331.052C272.824 331.052 267.018 338.08 259.607 338.157C252.196 338.233 254.412 334.566 254.412 334.566L279.318 319.668Z" fill="#F5F5F5" stroke="#36373C" stroke-width="0.764" stroke-miterlimit="10" stroke-linecap="round" stroke-linejoin="round"/>
<path d="M272.367 301.866C272.367 301.866 262.435 298.199 260.525 305.533C260.525 305.533 262.282 313.632 261.213 317.986C260.143 322.418 254.795 330.822 254.49 332.426C253.879 335.558 254.337 335.788 254.337 335.788C254.337 335.788 258.233 338.003 263.428 335.635C268.624 333.19 277.715 322.876 279.09 320.737C280.542 318.598 274.659 310.194 274.659 310.194L272.367 301.866Z" fill="white"/>
<path opacity="0.4" d="M272.367 301.866C272.367 301.866 262.435 298.199 260.525 305.533C260.525 305.533 262.282 313.632 261.213 317.986C260.143 322.418 254.795 330.822 254.49 332.426C253.879 335.558 254.337 335.788 254.337 335.788C254.337 335.788 258.233 338.003 263.428 335.635C268.624 333.19 277.715 322.876 279.09 320.737C280.542 318.598 274.659 310.194 274.659 310.194L272.367 301.866Z" fill="#F5F5F5"/>
<path d="M272.367 301.866C272.367 301.866 262.435 298.199 260.525 305.533C260.525 305.533 262.282 313.632 261.213 317.986C260.143 322.418 254.795 330.822 254.49 332.426C253.879 335.558 254.337 335.788 254.337 335.788C254.337 335.788 258.233 338.003 263.428 335.635C268.624 333.19 277.715 322.876 279.09 320.737C280.542 318.598 274.659 310.194 274.659 310.194L272.367 301.866Z" stroke="#36373C" stroke-width="0.764" stroke-miterlimit="10" stroke-linecap="round" stroke-linejoin="round"/>
<path d="M267.248 312.262C267.248 312.262 268.929 319.596 264.727 326.625" stroke="#36373C" stroke-width="0.764" stroke-miterlimit="10" stroke-linecap="round" stroke-linejoin="round"/>
<path d="M264.804 328.53C264.804 328.53 263.735 331.586 260.526 332.426C257.317 333.343 254.414 332.426 254.414 332.426L256.782 327.613C256.859 327.613 260.297 329.218 264.804 328.53Z" fill="#F5F5F5" stroke="#36373C" stroke-width="0.764" stroke-miterlimit="10" stroke-linecap="round" stroke-linejoin="round"/>
<path d="M266.174 325.627C266.174 325.627 260.979 325.933 258.305 324.863" stroke="#36373C" stroke-width="0.764" stroke-miterlimit="10" stroke-linecap="round" stroke-linejoin="round"/>
<path d="M267.173 322.725C267.173 322.725 262.283 323.489 259.609 321.961" stroke="#36373C" stroke-width="0.764" stroke-miterlimit="10" stroke-linecap="round" stroke-linejoin="round"/>
<path d="M268.013 319.594C268.013 319.594 263.735 320.205 260.984 318.906" stroke="#36373C" stroke-width="0.764" stroke-miterlimit="10" stroke-linecap="round" stroke-linejoin="round"/>
<path d="M268.468 315.926C268.468 315.926 263.731 317.377 261.516 315.926" stroke="#36373C" stroke-width="0.764" stroke-miterlimit="10" stroke-linecap="round" stroke-linejoin="round"/>
<path d="M269.159 307.063L270 312.259C270 312.259 263.735 316.384 259.609 311.265V305.841C259.609 305.765 261.137 309.432 269.159 307.063Z" fill="#F5F5F5" stroke="#36373C" stroke-width="0.764" stroke-miterlimit="10" stroke-linecap="round" stroke-linejoin="round"/>
<path d="M263.737 190.246C257.396 210.339 237.685 242.656 239.671 250.908C240.741 255.415 247.235 280.933 252.354 292.164C254.264 296.442 258.466 299.345 258.466 299.345L261.522 305.839C268.856 309.048 271.53 302.554 271.53 302.554L270.078 295.22C274.051 288.038 272.37 288.038 267.252 250.908C266.64 246.553 276.802 233.03 276.802 233.03L281.997 267.028L282.837 294.914L285.511 303.547C285.511 303.547 286.199 311.646 286.122 312.104H298.194L299.492 303.242C299.492 303.242 305.146 297.97 305.146 291.858C305.146 285.746 303.924 254.651 305.146 245.56C306.368 236.468 302.319 194.219 302.319 194.219L263.737 190.246Z" fill="#36373C"/>
<path d="M198.566 185.897L179.008 184.216L180.001 172.297C180.077 171.533 180.765 170.922 181.529 170.999L198.261 172.45C199.025 172.527 199.636 173.214 199.559 173.978L198.566 185.897Z" fill="#F5F5F5"/>
<path opacity="0.3" d="M198.566 185.897L179.008 184.216L180.001 172.297C180.077 171.533 180.765 170.922 181.529 170.999L198.261 172.45C199.025 172.527 199.636 173.214 199.559 173.978L198.566 185.897Z" fill="black" fill-opacity="0.7"/>
<path opacity="0.3" d="M198.506 173.662L193.711 173.25L192.88 182.917L197.675 183.329L198.506 173.662Z" fill="white" fill-opacity="0.7"/>
<path d="M198.566 185.897L179.008 184.216L180.001 172.297C180.077 171.533 180.765 170.922 181.529 170.999L198.261 172.45C199.025 172.527 199.636 173.214 199.559 173.978L198.566 185.897Z" stroke="#36373C" stroke-width="0.764" stroke-miterlimit="10" stroke-linecap="round" stroke-linejoin="round"/>
<path d="M227.519 188.342L207.961 186.661L208.954 174.743C209.031 173.979 209.718 173.368 210.482 173.444L227.214 174.896C227.978 174.972 228.589 175.66 228.513 176.424L227.519 188.342Z" fill="#F5F5F5"/>
<path opacity="0.3" d="M227.519 188.342L207.961 186.661L208.954 174.743C209.031 173.979 209.718 173.368 210.482 173.444L227.214 174.896C227.978 174.972 228.589 175.66 228.513 176.424L227.519 188.342Z" fill="black" fill-opacity="0.7"/>
<path opacity="0.3" d="M227.158 176.104L224.266 175.855L223.434 185.522L226.327 185.771L227.158 176.104Z" fill="white" fill-opacity="0.7"/>
<path d="M227.519 188.342L207.961 186.661L208.954 174.743C209.031 173.979 209.718 173.368 210.482 173.444L227.214 174.896C227.978 174.972 228.589 175.66 228.513 176.424L227.519 188.342Z" stroke="#36373C" stroke-width="0.764" stroke-miterlimit="10" stroke-linecap="round" stroke-linejoin="round"/>
<path d="M221.41 187.807L201.852 186.126L202.845 174.208C202.921 173.444 203.609 172.832 204.373 172.909L221.104 174.36C221.868 174.437 222.48 175.124 222.403 175.888L221.41 187.807Z" fill="#F5F5F5" stroke="#36373C" stroke-width="0.764" stroke-miterlimit="10" stroke-linecap="round" stroke-linejoin="round"/>
<path d="M250.363 190.326L230.805 188.646L231.798 176.727C231.874 175.963 232.562 175.352 233.326 175.428L250.057 176.88C250.821 176.956 251.433 177.644 251.356 178.408L250.363 190.326Z" fill="#F5F5F5" stroke="#36373C" stroke-width="0.764" stroke-miterlimit="10" stroke-linecap="round" stroke-linejoin="round"/>
<path opacity="0.3" d="M221.358 175.572L216.562 175.16L215.731 184.827L220.527 185.239L221.358 175.572Z" fill="white" fill-opacity="0.7"/>
<path opacity="0.3" d="M249.999 178.096L245.203 177.684L244.372 187.35L249.167 187.763L249.999 178.096Z" fill="white" fill-opacity="0.7"/>
<path d="M259.152 188.261L254.415 243.193L165.867 235.553L170.604 180.621C170.757 178.711 172.438 177.259 174.348 177.489L255.943 184.517C257.853 184.67 259.304 186.351 259.152 188.261Z" fill="#F5F5F5"/>
<path opacity="0.3" d="M259.152 188.261L254.415 243.193L165.867 235.553L170.604 180.621C170.757 178.711 172.438 177.259 174.348 177.489L255.943 184.517C257.853 184.67 259.304 186.351 259.152 188.261Z" fill="black" fill-opacity="0.7"/>
<path d="M259.152 188.261L254.415 243.193L165.867 235.553L170.604 180.621C170.757 178.711 172.438 177.259 174.348 177.489L255.943 184.517C257.853 184.67 259.304 186.351 259.152 188.261Z" stroke="#36373C" stroke-width="0.764" stroke-miterlimit="10" stroke-linecap="round" stroke-linejoin="round"/>
<path d="M259.152 188.267L254.415 243.198L188.711 237.545L193.448 182.613C193.601 180.703 195.281 179.252 197.191 179.481L255.943 184.523C257.853 184.676 259.305 186.357 259.152 188.267Z" fill="#F5F5F5" stroke="#36373C" stroke-width="0.764" stroke-miterlimit="10" stroke-linecap="round" stroke-linejoin="round"/>
<path opacity="0.3" d="M254.569 189.865L198.415 185.052C197.651 184.976 197.039 184.288 197.116 183.524C197.192 182.76 197.88 182.149 198.644 182.225L254.798 187.038C255.562 187.115 256.173 187.802 256.097 188.566C256.02 189.33 255.333 189.865 254.569 189.865Z" fill="white" fill-opacity="0.7"/>
<path d="M298.57 312.326C298.57 312.326 294.368 309.27 285.582 309.882C285.582 309.882 284.97 320.425 283.748 323.481C282.526 326.537 276.261 331.808 275.115 332.725C273.969 333.642 273.969 336.774 273.969 336.774H300.556C300.556 336.774 300.098 329.746 298.417 323.252L298.57 312.326Z" fill="white"/>
<path opacity="0.4" d="M298.57 312.326C298.57 312.326 294.368 309.27 285.582 309.882C285.582 309.882 284.97 320.425 283.748 323.481C282.526 326.537 276.261 331.808 275.115 332.725C273.969 333.642 273.969 336.774 273.969 336.774H300.556C300.556 336.774 300.098 329.746 298.417 323.252L298.57 312.326Z" fill="#F5F5F5"/>
<path d="M298.57 312.326C298.57 312.326 294.368 309.27 285.582 309.882C285.582 309.882 284.97 320.425 283.748 323.481C282.526 326.537 276.261 331.808 275.115 332.725C273.969 333.642 273.969 336.774 273.969 336.774H300.556C300.556 336.774 300.098 329.746 298.417 323.252L298.57 312.326Z" stroke="#36373C" stroke-width="0.764" stroke-miterlimit="10" stroke-linecap="round" stroke-linejoin="round"/>
<path d="M293.072 313.703C293.072 313.703 292.461 323.406 290.933 325.927C289.405 328.448 287.953 329.747 287.953 329.747" stroke="#36373C" stroke-width="0.764" stroke-miterlimit="10" stroke-linecap="round" stroke-linejoin="round"/>
<path d="M287.265 331.048C287.265 331.048 285.966 332.729 284.438 332.958C282.986 333.187 275.117 332.729 275.117 332.729L278.326 329.978C278.326 329.978 284.82 328.909 287.265 331.048Z" fill="#F5F5F5" stroke="#36373C" stroke-width="0.764" stroke-miterlimit="10" stroke-linecap="round" stroke-linejoin="round"/>
<path d="M290.015 328.833C290.015 328.833 284.362 325.548 280.312 328.069" stroke="#36373C" stroke-width="0.764" stroke-miterlimit="10" stroke-linecap="round" stroke-linejoin="round"/>
<path d="M291.391 326.617C291.391 326.617 287.418 323.485 282.758 325.242" stroke="#36373C" stroke-width="0.764" stroke-miterlimit="10" stroke-linecap="round" stroke-linejoin="round"/>
<path d="M293.067 323.254C293.067 323.254 288.789 319.969 284.281 322.032" stroke="#36373C" stroke-width="0.764" stroke-miterlimit="10" stroke-linecap="round" stroke-linejoin="round"/>
<path d="M293.681 319.056C293.681 319.056 288.486 316.306 284.742 318.369" stroke="#36373C" stroke-width="0.764" stroke-miterlimit="10" stroke-linecap="round" stroke-linejoin="round"/>
<path d="M300.557 336.855V338.842H297.501C297.501 338.842 294.903 337.314 292.382 338.842C292.382 338.842 280.54 338.842 278.019 338.842C275.498 338.842 273.664 337.849 273.664 337.849L273.97 336.855H300.557Z" fill="#F5F5F5" stroke="#36373C" stroke-width="0.764" stroke-miterlimit="10" stroke-linecap="round" stroke-linejoin="round"/>
<path d="M296.736 311.72L296.049 315.998C296.049 315.998 288.103 313.4 283.672 315.081V309.81C283.672 309.81 291.847 306.983 296.736 311.72Z" fill="#F5F5F5" stroke="#36373C" stroke-width="0.764" stroke-miterlimit="10" stroke-linecap="round" stroke-linejoin="round"/>
<path d="M305.375 204.914C305.375 204.914 288.414 208.2 271.759 202.852C268.092 201.629 264.424 200.025 260.986 197.886C260.986 197.886 261.063 196.816 261.063 195.059C261.216 188.259 261.139 171.069 257.548 166.791C255.256 164.117 253.423 147.538 257.854 139.134L271.377 128.285C290.095 131.952 294.068 136.918 297.2 147.614C297.811 149.601 298.346 151.74 298.881 154.108C299.492 156.706 300.103 159.838 300.714 163.353C303.541 180.314 305.375 204.914 305.375 204.914Z" fill="#999999"/>
<path opacity="0.2" d="M300.712 163.197L293.072 197.348C293.072 197.348 282.071 200.404 271.757 202.849C268.09 201.626 264.422 200.022 260.984 197.883C260.984 197.883 261.061 196.813 261.061 195.056C270.305 190.319 283.828 183.367 283.675 183.061C283.522 182.526 283.675 164.725 283.675 164.725C283.675 164.725 295.899 161.898 297.198 147.535C297.809 149.522 298.344 151.661 298.879 154.029C299.49 156.627 300.178 159.759 300.712 163.197Z" fill="#18191E"/>
<path d="M305.375 204.914C305.375 204.914 288.414 208.2 271.759 202.852C268.092 201.629 264.424 200.025 260.986 197.886C260.986 197.886 261.063 196.816 261.063 195.059C261.216 188.259 261.139 171.069 257.548 166.791C255.256 164.117 253.423 147.538 257.854 139.134L271.377 128.285C290.095 131.952 294.068 136.918 297.2 147.614C297.811 149.601 298.346 151.74 298.881 154.108C299.492 156.706 300.103 159.838 300.714 163.353C303.541 180.314 305.375 204.914 305.375 204.914Z" stroke="#36373C" stroke-width="0.764" stroke-miterlimit="10" stroke-linecap="round" stroke-linejoin="round"/>
<path d="M271.989 113.996C271.989 113.996 266.029 122.553 273.975 129.2C273.975 129.2 264.348 140.048 261.14 138.52C259.841 137.909 261.14 134.013 261.14 134.013L255.562 123.699L271.989 113.996Z" fill="white" stroke="#36373C" stroke-width="0.764" stroke-miterlimit="10" stroke-linecap="round" stroke-linejoin="round"/>
<path d="M269.999 118.357C271.832 110.183 270.992 98.035 259.532 99.181C251.51 99.945 245.78 104.376 248.072 115.149C248.989 119.656 249.753 126.074 253.955 131.88C255.101 133.485 267.172 127.831 266.484 123.247" fill="white"/>
<path d="M269.999 118.357C271.832 110.183 270.992 98.035 259.532 99.181C251.51 99.945 245.78 104.376 248.072 115.149C248.989 119.656 249.753 126.074 253.955 131.88C255.101 133.485 267.172 127.831 266.484 123.247" stroke="#36373C" stroke-width="0.764" stroke-miterlimit="10" stroke-linecap="round" stroke-linejoin="round"/>
<path d="M253.727 113.313C253.727 113.313 256.095 112.244 258.693 113.772" stroke="#36373C" stroke-width="0.764" stroke-miterlimit="10" stroke-linecap="round" stroke-linejoin="round"/>
<path d="M247.922 114.303C247.922 114.303 248.304 113.234 249.603 113.539" stroke="#36373C" stroke-width="0.764" stroke-miterlimit="10" stroke-linecap="round" stroke-linejoin="round"/>
<path d="M250.822 116.066C250.822 116.066 248.453 120.345 248.453 120.956C248.453 121.567 251.356 121.796 251.356 121.796" fill="white"/>
<path d="M250.822 116.066C250.822 116.066 248.453 120.345 248.453 120.956C248.453 121.567 251.356 121.796 251.356 121.796" stroke="#36373C" stroke-width="0.764" stroke-miterlimit="10" stroke-linecap="round" stroke-linejoin="round"/>
<path d="M255.353 117.745C255.648 117.736 255.875 117.353 255.861 116.889C255.846 116.425 255.595 116.056 255.3 116.065C255.005 116.075 254.777 116.458 254.792 116.922C254.806 117.386 255.057 117.755 255.353 117.745Z" fill="#36373C"/>
<path d="M252.508 124.851C252.508 124.851 257.015 124.011 257.856 122.406" stroke="#36373C" stroke-width="0.764" stroke-miterlimit="10" stroke-linecap="round" stroke-linejoin="round"/>
<path d="M247.921 107.737L251.436 106.744C251.436 106.744 256.325 104.452 257.395 104.757C258.465 105.063 260.604 108.348 260.527 110.182C260.527 110.182 263.813 113.085 264.271 117.363L265.264 116.905C265.264 116.905 265.188 113.085 267.403 113.161C269.543 113.238 270.536 115.835 270.383 116.676C270.23 117.516 267.862 120.878 267.862 120.878C267.862 120.878 273.286 120.037 273.439 109.418C273.592 98.7979 261.979 96.9643 256.249 97.4227C250.595 97.8811 247.616 97.7283 247.616 97.7283L247.921 100.784L245.629 101.396L247.387 103.535L245.477 104.375L247.921 107.737Z" fill="#36373C"/>
<path d="M267.633 223.859C267.633 223.859 281.461 227.527 285.205 237.841" stroke="white" stroke-width="0.764" stroke-miterlimit="10" stroke-linecap="round" stroke-linejoin="round"/>
<path d="M273.971 229.438C273.971 229.438 266.483 241.891 255.023 248.308" stroke="white" stroke-width="0.764" stroke-miterlimit="10" stroke-linecap="round" stroke-linejoin="round"/>
<path d="M263.43 299.418C263.43 299.418 267.708 298.501 268.854 296.82" stroke="white" stroke-width="0.764" stroke-miterlimit="10" stroke-linecap="round" stroke-linejoin="round"/>
<path d="M287.117 300.951C287.117 300.951 291.243 298.812 295.445 300.951" stroke="white" stroke-width="0.764" stroke-miterlimit="10" stroke-linecap="round" stroke-linejoin="round"/>
<path d="M300.561 243.039C300.561 243.039 293.608 261.069 290.094 262.75" stroke="white" stroke-width="0.764" stroke-miterlimit="10" stroke-linecap="round" stroke-linejoin="round"/>
<path d="M270 214.691C270.153 216.678 278.404 225.769 285.204 229.36" stroke="white" stroke-width="0.764" stroke-miterlimit="10" stroke-linecap="round" stroke-linejoin="round"/>
<path d="M277.031 207.051C277.031 207.051 278.636 210.642 277.642 214.691C276.573 218.74 277.642 221.49 277.642 221.49" stroke="white" stroke-width="0.764" stroke-miterlimit="10" stroke-linecap="round" stroke-linejoin="round"/>
<path d="M262.055 169.465C262.055 169.465 274.89 186.12 288.718 191.544" stroke="#36373C" stroke-width="0.764" stroke-miterlimit="10" stroke-linecap="round" stroke-linejoin="round"/>
<path d="M275.352 142.574C275.352 142.574 275.275 153.881 283.45 159" stroke="#36373C" stroke-width="0.764" stroke-miterlimit="10" stroke-linecap="round" stroke-linejoin="round"/>
<path d="M279.934 159.076C278.177 160.757 280.087 182.073 280.087 182.073C280.087 182.073 270.079 185.969 266.946 188.567C263.814 191.164 248.916 196.894 248.916 196.894C248.916 196.894 246.624 204.687 249.451 204.993C252.278 205.222 281.921 195.137 288.644 191.623C288.644 191.623 293.075 165.647 292.999 159" fill="white"/>
<path d="M279.934 159.076C278.177 160.757 280.087 182.073 280.087 182.073C280.087 182.073 270.079 185.969 266.946 188.567C263.814 191.164 248.916 196.894 248.916 196.894C248.916 196.894 246.624 204.687 249.451 204.993C252.278 205.222 281.921 195.137 288.644 191.623C288.644 191.623 293.075 165.647 292.999 159" stroke="#36373C" stroke-width="0.764" stroke-miterlimit="10" stroke-linecap="round" stroke-linejoin="round"/>
<path d="M250.062 196.437C248.687 196.208 246.242 195.291 244.943 195.597C243.644 195.902 241.352 197.278 238.908 197.889C236.463 198.5 237.532 199.417 238.908 199.722C240.283 200.028 242.04 199.722 242.04 199.722L240.054 201.632C240.054 201.632 236.921 203.237 236.539 203.237C235.852 203.237 233.33 203.924 233.483 204.994C233.712 206.064 235.088 205.911 236.692 205.987C236.692 205.987 234.094 206.522 234.4 207.974C234.553 208.967 237.456 208.05 238.908 208.05C238.908 208.05 237.685 209.349 238.602 209.731C239.519 210.113 241.505 209.12 241.505 209.12C241.505 209.12 241.429 210.189 242.346 210.342C243.262 210.495 245.478 209.578 247.082 208.661C248.687 207.744 249.986 206.598 251.437 205.452C252.889 204.306 253.424 204.154 253.424 204.154" fill="white"/>
<path d="M250.062 196.437C248.687 196.208 246.242 195.291 244.943 195.597C243.644 195.902 241.352 197.278 238.908 197.889C236.463 198.5 237.532 199.417 238.908 199.722C240.283 200.028 242.04 199.722 242.04 199.722L240.054 201.632C240.054 201.632 236.921 203.237 236.539 203.237C235.852 203.237 233.33 203.924 233.483 204.994C233.712 206.064 235.088 205.911 236.692 205.987C236.692 205.987 234.094 206.522 234.4 207.974C234.553 208.967 237.456 208.05 238.908 208.05C238.908 208.05 237.685 209.349 238.602 209.731C239.519 210.113 241.505 209.12 241.505 209.12C241.505 209.12 241.429 210.189 242.346 210.342C243.262 210.495 245.478 209.578 247.082 208.661C248.687 207.744 249.986 206.598 251.437 205.452C252.889 204.306 253.424 204.154 253.424 204.154" stroke="#36373C" stroke-width="0.764" stroke-miterlimit="10" stroke-linecap="round" stroke-linejoin="round"/>
<path d="M236.844 205.986C236.844 205.986 238.372 205.91 238.983 205.757C239.594 205.604 240.205 205.375 240.205 205.375" stroke="#36373C" stroke-width="0.764" stroke-miterlimit="10" stroke-linecap="round" stroke-linejoin="round"/>
<path d="M239.062 208.05C239.062 208.05 240.743 207.82 241.66 207.133" stroke="#36373C" stroke-width="0.764" stroke-miterlimit="10" stroke-linecap="round" stroke-linejoin="round"/>
<path d="M241.656 209.117C241.656 209.117 242.879 208.964 243.566 208.43" stroke="#36373C" stroke-width="0.764" stroke-miterlimit="10" stroke-linecap="round" stroke-linejoin="round"/>
<path d="M240.363 202.164C240.363 202.164 239.828 203.386 240.363 204.15C240.897 204.838 241.585 204.914 241.661 205.678C241.738 206.519 243.037 206.442 243.571 206.977C244.03 207.512 244.412 208.429 245.94 208.505" stroke="#36373C" stroke-width="0.764" stroke-miterlimit="10" stroke-linecap="round" stroke-linejoin="round"/>
<path d="M279.325 136.992C274.129 148.758 279.325 165.107 279.325 165.107C279.325 165.107 291.931 169.386 293.077 167.552C294.223 165.719 296.362 156.703 296.744 152.501" fill="#999999"/>
<path d="M279.325 136.992C274.129 148.758 279.325 165.107 279.325 165.107C279.325 165.107 291.931 169.386 293.077 167.552C294.223 165.719 296.362 156.703 296.744 152.501" stroke="#36373C" stroke-width="0.764" stroke-miterlimit="10" stroke-linecap="round" stroke-linejoin="round"/>
<path d="M293.072 153.805C293.072 153.805 287.724 161.139 283.445 161.292" stroke="#36373C" stroke-width="0.764" stroke-miterlimit="10" stroke-linecap="round" stroke-linejoin="round"/>
<path d="M105.438 252.507C105.438 252.507 109.487 249.909 115.064 251.284C120.641 252.66 135.157 273.44 137.143 275.427C139.13 277.413 142.95 278.483 146.388 282.15C151.889 287.88 159.911 292.999 160.675 292.999C161.515 292.999 162.126 292.464 163.119 292.311C164.113 292.082 171.906 291.394 171.906 291.394C171.906 291.394 174.503 292.006 171.906 293.075C169.308 294.221 169.461 295.214 169.461 295.214C169.461 295.214 168.926 296.055 169.995 296.895C171.065 297.736 171.676 297.277 173.204 299.416C174.732 301.556 171.065 300.333 171.065 300.333C171.065 300.333 171.906 302.625 170.225 302.396C168.62 302.167 169.996 304.612 167.398 304.306C164.8 304 159.147 300.41 157.771 296.742C157.771 296.742 134.928 285.817 131.49 282.99C128.052 280.164 113.689 265.036 112.695 264.884" fill="#36373C"/>
<path d="M183.518 286.427H163.883V274.432C163.883 273.668 164.494 272.98 165.334 272.98H182.142C182.906 272.98 183.594 273.592 183.594 274.432V286.427H183.518Z" fill="#F5F5F5"/>
<path opacity="0.3" d="M183.518 286.427H163.883V274.432C163.883 273.668 164.494 272.98 165.334 272.98H182.142C182.906 272.98 183.594 273.592 183.594 274.432V286.427H183.518Z" fill="black" fill-opacity="0.7"/>
<path opacity="0.3" d="M182.446 274.281H177.633V283.984H182.446V274.281Z" fill="white" fill-opacity="0.7"/>
<path d="M183.518 286.427H163.883V274.432C163.883 273.668 164.494 272.98 165.334 272.98H182.142C182.906 272.98 183.594 273.592 183.594 274.432V286.427H183.518Z" stroke="#36373C" stroke-width="0.764" stroke-miterlimit="10" stroke-linecap="round" stroke-linejoin="round"/>
<path d="M212.549 286.427H192.914V274.432C192.914 273.668 193.525 272.98 194.366 272.98H211.174C211.938 272.98 212.625 273.592 212.625 274.432V286.427H212.549Z" fill="#F5F5F5"/>
<path opacity="0.3" d="M212.549 286.427H192.914V274.432C192.914 273.668 193.525 272.98 194.366 272.98H211.174C211.938 272.98 212.625 273.592 212.625 274.432V286.427H212.549Z" fill="black" fill-opacity="0.7"/>
<path opacity="0.3" d="M211.099 274.281H208.195V283.984H211.099V274.281Z" fill="white" fill-opacity="0.7"/>
<path d="M212.549 286.427H192.914V274.432C192.914 273.668 193.525 272.98 194.366 272.98H211.174C211.938 272.98 212.625 273.592 212.625 274.432V286.427H212.549Z" stroke="#36373C" stroke-width="0.764" stroke-miterlimit="10" stroke-linecap="round" stroke-linejoin="round"/>
<path d="M206.439 286.427H186.805V274.432C186.805 273.668 187.416 272.98 188.256 272.98H205.064C205.828 272.98 206.516 273.592 206.516 274.432V286.427H206.439Z" fill="#F5F5F5" stroke="#36373C" stroke-width="0.764" stroke-miterlimit="10" stroke-linecap="round" stroke-linejoin="round"/>
<path d="M235.471 286.427H215.836V274.432C215.836 273.668 216.447 272.98 217.288 272.98H234.096C234.86 272.98 235.547 273.592 235.547 274.432V286.427H235.471Z" fill="#F5F5F5" stroke="#36373C" stroke-width="0.764" stroke-miterlimit="10" stroke-linecap="round" stroke-linejoin="round"/>
<path opacity="0.3" d="M205.368 274.281H200.555V283.984H205.368V274.281Z" fill="white" fill-opacity="0.7"/>
<path opacity="0.3" d="M234.016 274.281H229.203V283.984H234.016V274.281Z" fill="white" fill-opacity="0.7"/>
<path d="M244.025 283.602V338.763H155.172V283.602C155.172 281.692 156.7 280.164 158.686 280.164H240.587C242.497 280.164 244.025 281.692 244.025 283.602Z" fill="#F5F5F5"/>
<path opacity="0.3" d="M244.025 283.602V338.763H155.172V283.602C155.172 281.692 156.7 280.164 158.686 280.164H240.587C242.497 280.164 244.025 281.692 244.025 283.602Z" fill="black" fill-opacity="0.7"/>
<path d="M244.025 283.602V338.763H155.172V283.602C155.172 281.692 156.7 280.164 158.686 280.164H240.587C242.497 280.164 244.025 281.692 244.025 283.602Z" stroke="#36373C" stroke-width="0.764" stroke-miterlimit="10" stroke-linecap="round" stroke-linejoin="round"/>
<path d="M244.027 283.602V338.763H178.094V283.602C178.094 281.692 179.622 280.164 181.608 280.164H240.589C242.499 280.164 244.027 281.692 244.027 283.602Z" fill="#F5F5F5" stroke="#36373C" stroke-width="0.764" stroke-miterlimit="10" stroke-linecap="round" stroke-linejoin="round"/>
<path opacity="0.3" d="M239.593 285.587H183.209C182.445 285.587 181.758 284.976 181.758 284.135C181.758 283.371 182.369 282.684 183.209 282.684H239.593C240.357 282.684 241.044 283.295 241.044 284.135C241.044 284.976 240.357 285.587 239.593 285.587Z" fill="white" fill-opacity="0.7"/>
<path d="M135.233 338.762C130.649 338.762 124.231 335.782 116.82 332.726C109.104 329.518 100.394 326.08 91.4555 325.545C88.1703 325.392 90.1567 338.762 90.1567 338.762H82.8987C82.8987 338.762 75.7171 329.212 74.9531 320.655C74.9531 320.655 80.8359 317.064 82.2111 316.835C82.5167 316.759 83.0515 316.759 83.6627 316.759C85.2671 316.759 87.3299 316.835 87.3299 316.835C87.0243 316.606 81.5999 313.397 78.6967 310.112C76.2519 307.438 75.1059 303.16 75.0295 300.562C74.9531 299.263 75.5643 295.52 75.5643 295.52L113.688 296.131C113.688 296.131 114.07 296.436 114.834 296.971C119.265 300.18 135.386 312.175 143.484 321.266C146.082 324.17 147.839 326.767 148.144 328.754C149.367 337.54 142.185 338.762 135.233 338.762Z" fill="#7E7E7E" stroke="#36373C" stroke-width="0.764" stroke-miterlimit="10" stroke-linecap="round" stroke-linejoin="round"/>
<path d="M143.482 321.265L124.917 325.467C124.917 325.467 120.104 328.064 116.742 332.648C109.026 329.439 100.316 326.001 91.3774 325.467C88.0922 325.314 90.0786 338.684 90.0786 338.684H82.8206C82.8206 338.684 75.639 329.134 74.875 320.577C74.875 320.577 81.5982 330.203 83.279 335.093C83.279 335.093 85.8766 326.078 90.155 322.411C90.155 322.411 87.3282 319.125 83.661 316.681C85.2654 316.681 87.3282 316.757 87.3282 316.757C87.0226 316.528 81.5982 313.319 78.695 310.034C76.2502 307.36 75.257 303.081 75.0278 300.484C74.9514 299.261 75.1042 295.441 75.1042 295.441C75.1042 295.441 103.525 299.491 114.909 296.893C119.263 300.255 135.384 312.249 143.482 321.265Z" fill="#36373C"/>
<path d="M113.688 320.656C113.688 320.656 128.815 328.22 132.864 331.199C136.913 334.179 138.135 333.339 138.135 333.339" stroke="#36373C" stroke-width="0.764" stroke-miterlimit="10" stroke-linecap="round" stroke-linejoin="round"/>
<path d="M78.6172 319.809C78.6172 319.809 82.208 325.386 82.4372 326.99" stroke="#36373C" stroke-width="0.764" stroke-miterlimit="10" stroke-linecap="round" stroke-linejoin="round"/>
<path d="M139.431 213.537C139.431 213.537 147.53 210.023 146.766 224.921C146.002 239.819 148.752 240.583 148.752 240.583C148.752 240.583 128.506 248.91 123.387 241.805C118.116 234.623 123.005 215.218 139.431 213.537Z" fill="#36373C"/>
<path d="M138.285 240.591C138.285 240.591 129.957 244.488 129.193 248.155C128.429 251.746 118.039 246.321 118.039 246.321L125.603 235.473L138.285 240.591Z" fill="white" stroke="#36373C" stroke-width="0.764" stroke-miterlimit="10" stroke-linecap="round" stroke-linejoin="round"/>
<path d="M83.6618 280.392C64.5618 304.688 80.071 316.453 101.692 314.543L97.3374 321.419L108.263 323.329C108.263 323.329 116.59 317.905 127.974 312.022C147.379 302.09 155.172 302.701 153.186 292.769C151.199 282.837 127.439 276.42 103.679 286.886C103.679 286.81 90.767 271.454 83.6618 280.392Z" fill="#7E7E7E" stroke="#36373C" stroke-width="0.764" stroke-miterlimit="10" stroke-linecap="round" stroke-linejoin="round"/>
<path d="M90.387 333.341C90.387 333.341 95.353 319.589 97.4158 318.825C99.4786 318.061 107.271 321.041 108.341 323.257C108.341 323.257 111.015 319.207 112.085 320.888C113.154 322.645 111.626 325.472 112.085 327.688C112.543 329.903 117.967 332.959 120.107 333.341C122.246 333.723 123.468 334.946 123.468 336.168C123.468 337.391 123.468 338.766 123.468 338.766H90.387C90.387 338.766 89.1646 336.55 90.387 333.341Z" fill="white" stroke="#36373C" stroke-width="0.764" stroke-miterlimit="10" stroke-linecap="round" stroke-linejoin="round"/>
<path d="M112.012 325.551C112.012 325.551 107.657 327.69 106.052 327.079C104.448 326.468 106.893 330.67 107.504 331.128C108.115 331.51 112.088 329.753 112.088 329.753" stroke="#36373C" stroke-width="0.764" stroke-miterlimit="10" stroke-linecap="round" stroke-linejoin="round"/>
<path d="M94.5156 323.258C94.5156 323.258 100.475 323.334 102.232 325.55" stroke="#36373C" stroke-width="0.764" stroke-miterlimit="10" stroke-linecap="round" stroke-linejoin="round"/>
<path d="M90.3906 333.34C90.3906 333.34 99.8642 335.555 100.705 335.555C101.545 335.555 104.525 334.409 104.525 334.409C104.525 334.409 107.122 335.708 108.879 336.549C110.637 337.389 121.867 336.549 121.867 336.549" stroke="#36373C" stroke-width="0.764" stroke-miterlimit="10" stroke-linecap="round" stroke-linejoin="round"/>
<path d="M101.766 314.543C110.781 313.549 128.353 302.395 134.465 298.575C140.577 294.679 142.181 295.672 142.181 295.672" stroke="#36373C" stroke-width="0.764" stroke-miterlimit="10" stroke-linecap="round" stroke-linejoin="round"/>
<path d="M75.0312 295.519L76.4829 284.518L79.9973 281.92C85.6509 268.244 111.245 242.65 118.197 242.727C128.664 242.88 130.498 253.805 131.796 265.876C133.095 277.947 116.746 276.114 116.746 276.114V279.17L107.501 283.983L113.155 283.83C113.078 283.754 96.8817 299.492 75.0312 295.519Z" fill="#F5F5F5" stroke="#36373C" stroke-width="0.764" stroke-miterlimit="10" stroke-linecap="round" stroke-linejoin="round"/>
<path d="M120.329 221.486C122.545 214.61 132.553 212.777 136.144 213.923C138.436 214.61 141.568 217.131 142.944 220.111C143.86 222.097 141.95 225.612 143.326 227.598C145.312 230.501 145.083 236.69 144.395 240.586C144.013 242.649 135.456 243.871 128.428 239.058C120.94 233.939 118.266 228.209 120.329 221.486Z" fill="white" stroke="#36373C" stroke-width="0.764" stroke-miterlimit="10" stroke-linecap="round" stroke-linejoin="round"/>
<path d="M130.491 211.938C130.491 211.938 139.354 210.486 139.354 212.778C139.736 227.829 130.72 231.038 130.72 231.038C130.72 231.038 127.053 228.134 126.213 230.121C125.372 232.107 127.512 237.684 130.109 237.837C130.109 237.837 128.123 240.435 130.033 244.102C130.033 244.102 115.058 246.623 113.836 239.671C113.836 239.671 114.676 236.386 115.058 232.336C116.052 222.634 113.76 216.063 130.491 211.938Z" fill="#36373C"/>
<path d="M142.336 227.293C144.17 228.974 145.468 228.974 145.468 229.509C145.392 231.342 143.176 232.259 143.176 232.259" fill="white"/>
<path d="M142.336 227.293C144.17 228.974 145.468 228.974 145.468 229.509C145.392 231.342 143.176 232.259 143.176 232.259" stroke="#36373C" stroke-width="0.764" stroke-miterlimit="10" stroke-linecap="round" stroke-linejoin="round"/>
<path d="M143.096 235.391C143.096 235.391 141.262 236.155 139.047 235.467" stroke="#36373C" stroke-width="0.764" stroke-miterlimit="10" stroke-linecap="round" stroke-linejoin="round"/>
<path d="M138.211 218.049C138.211 218.049 144.094 216.368 143.024 225.842C143.024 225.842 145.469 222.557 145.469 218.813C145.469 212.319 136.836 213.618 136.836 213.618L137.982 218.202" fill="#36373C"/>
<path d="M143.559 222.708C143.559 222.708 143.101 222.249 142.031 222.402" stroke="#36373C" stroke-width="0.764" stroke-miterlimit="10" stroke-linecap="round" stroke-linejoin="round"/>
<path d="M139.586 222.633C139.586 222.633 136.453 222.786 135.078 224.925" stroke="#36373C" stroke-width="0.764" stroke-miterlimit="10" stroke-linecap="round" stroke-linejoin="round"/>
<path d="M138.377 228.599C138.671 228.572 138.871 228.14 138.823 227.636C138.775 227.132 138.498 226.746 138.204 226.774C137.91 226.802 137.711 227.233 137.758 227.737C137.806 228.241 138.083 228.627 138.377 228.599Z" fill="#36373C"/>
<path d="M102.227 316.836C102.227 316.836 109.255 317.6 110.783 320.656" stroke="#36373C" stroke-width="0.764" stroke-miterlimit="10" stroke-linecap="round" stroke-linejoin="round"/>
<path d="M120.031 247.921C120.031 247.921 124.08 245.323 129.658 246.699C135.235 248.074 149.751 268.855 151.737 270.841C153.724 272.827 157.544 273.897 160.982 277.564C166.482 283.294 174.504 288.413 175.268 288.413C176.109 288.413 176.72 287.878 177.713 287.725C178.706 287.496 186.499 286.808 186.499 286.808C186.499 286.808 189.097 287.42 186.499 288.489C183.902 289.635 184.054 290.628 184.054 290.628C184.054 290.628 183.52 291.469 184.589 292.309C185.659 293.15 186.27 292.691 187.798 294.83C189.326 296.97 185.659 295.747 185.659 295.747C185.659 295.747 186.499 298.039 184.818 297.81C183.214 297.581 184.589 300.026 181.992 299.72C179.394 299.414 173.74 295.824 172.365 292.156C172.365 292.156 149.522 281.231 146.084 278.404C142.646 275.578 128.282 260.451 127.289 260.298" fill="white"/>
<path d="M120.031 247.921C120.031 247.921 124.08 245.323 129.658 246.699C135.235 248.074 149.751 268.855 151.737 270.841C153.724 272.827 157.544 273.897 160.982 277.564C166.482 283.294 174.504 288.413 175.268 288.413C176.109 288.413 176.72 287.878 177.713 287.725C178.706 287.496 186.499 286.808 186.499 286.808C186.499 286.808 189.097 287.42 186.499 288.489C183.902 289.635 184.054 290.628 184.054 290.628C184.054 290.628 183.52 291.469 184.589 292.309C185.659 293.15 186.27 292.691 187.798 294.83C189.326 296.97 185.659 295.747 185.659 295.747C185.659 295.747 186.499 298.039 184.818 297.81C183.214 297.581 184.589 300.026 181.992 299.72C179.394 299.414 173.74 295.824 172.365 292.156C172.365 292.156 149.522 281.231 146.084 278.404C142.646 275.578 128.282 260.451 127.289 260.298" stroke="#36373C" stroke-width="0.764" stroke-miterlimit="10" stroke-linecap="round" stroke-linejoin="round"/>
<path d="M116.742 245.705C116.742 245.705 128.049 242.649 131.946 244.864C135.842 247.08 143.329 257.394 143.329 257.394C143.329 257.394 134.238 265.569 131.411 264.805C128.584 264.041 120.027 262.818 120.027 262.818" fill="#F5F5F5"/>
<path d="M116.742 245.705C116.742 245.705 128.049 242.649 131.946 244.864C135.842 247.08 143.329 257.394 143.329 257.394C143.329 257.394 134.238 265.569 131.411 264.805C128.584 264.041 120.027 262.818 120.027 262.818" stroke="#36373C" stroke-width="0.764" stroke-miterlimit="10" stroke-linecap="round" stroke-linejoin="round"/>
<path d="M126.523 263.809C126.523 263.809 122.473 266.024 120.945 266.024" stroke="#36373C" stroke-width="0.764" stroke-miterlimit="10" stroke-linecap="round" stroke-linejoin="round"/>
<path d="M120.031 252.5C120.337 253.111 120.26 259.682 127.442 261.744" stroke="#36373C" stroke-width="0.764" stroke-miterlimit="10" stroke-linecap="round" stroke-linejoin="round"/>
<path d="M81.6719 282.15C81.6719 282.15 96.9519 284.748 102.223 280.164" stroke="#36373C" stroke-width="0.764" stroke-miterlimit="10" stroke-linecap="round" stroke-linejoin="round"/>
<path d="M107.498 283.982C107.498 283.982 103.678 283.295 102.303 285.281C100.927 287.267 93.2109 289.025 93.2109 289.025" stroke="#36373C" stroke-width="0.764" stroke-miterlimit="10" stroke-linecap="round" stroke-linejoin="round"/>
<path d="M76.7822 298.5C76.7822 298.5 74.5666 308.05 83.9638 312.252" stroke="#36373C" stroke-width="0.764" stroke-miterlimit="10" stroke-linecap="round" stroke-linejoin="round"/>
<path d="M81.6719 299.186C81.6719 299.186 81.7483 303.846 83.1999 306.444L87.8603 307.972L93.1319 305.068C93.1319 305.068 91.9859 299.033 91.9095 297.887" stroke="#36373C" stroke-width="0.764" stroke-miterlimit="10" stroke-linecap="round" stroke-linejoin="round"/>
</svg>
