<svg width="104" height="25" viewBox="0 0 104 25" fill="none" xmlns="http://www.w3.org/2000/svg">
<path d="M6.68299 4.3125L6.74663 8.625H6.87393C7.76499 6.1875 9.99266 4.1875 13.2387 4.1875C17.4394 4.1875 18.7124 6.25 18.7124 10.1875V17.9375C18.7124 20.3125 18.8397 22.75 19.4125 24.5625H12.6022C13.175 22.8125 13.2387 20.6875 13.2387 18.125V10.75C13.2387 8.9375 12.5386 8.125 10.5018 8.125C8.9743 8.125 7.82864 8.5625 6.93758 9.3125V18.1875C6.93758 20.75 7.00122 22.875 7.57405 24.625H0.827417C1.46389 22.8125 1.52754 20.3125 1.52754 18V10.75C1.52754 8.8125 0.827417 7.0625 0 6.1875L6.68299 4.3125ZM31.1236 20.75V13.5C30.6781 14.125 30.1689 14.5 28.705 15.125C26.7956 16.0625 26.0955 17.0625 26.0955 19.125C26.0955 20.875 27.1138 22 28.6414 22C30.1689 22.0625 30.6781 21.5 31.1236 20.75ZM29.3415 4.25C34.5606 4.25 36.5337 6.3125 36.5337 10.5V19.25C36.5337 20.8125 37.1701 21.3125 38.4431 21.3125C38.634 21.3125 39.3341 21.1875 39.5251 21C39.3978 21.625 39.3341 21.9375 39.2069 22.25C38.5704 24 37.4884 25 35.3244 25C32.7148 25 31.4419 23.1875 31.3782 21.375H31.3146C30.4235 23.9375 28.7687 25 26.0955 25C22.8494 25 20.7491 23.0625 20.7491 20.0625C20.7491 16.875 23.6769 15.5 26.7319 14.375C29.6597 13.25 31.1873 12.4375 31.1873 10.375V9.9375C31.1873 7.6875 30.4871 6.5625 28.3231 6.5625C26.9865 6.5625 26.4774 7.1875 26.2228 8.4375C25.7772 10.375 25.0135 11.0625 23.7405 11.0625C22.5949 11.0625 21.5129 10.3125 21.5129 8.875C21.3856 6.125 25.3317 4.25 29.3415 4.25ZM51.3635 22.375C50.6634 23.9375 48.9449 25 46.5263 25C42.3892 25 40.7344 22.9375 40.7344 19.1875V7.4375H38.7613V7.3125L45.9535 0L46.0808 0.0625V4.6875H51.2999L50.7907 7.5H46.1444V18.375C46.1444 20.4375 47.0355 21.3125 48.9449 21.3125C50.4088 21.3125 51.1726 21.125 51.8727 20.75C51.6818 21.4375 51.6181 21.8125 51.3635 22.375ZM58.8103 4.5625V18.3125C58.8103 20.375 59.6377 21.5 61.6744 21.5C63.3929 21.5 64.6658 20.9375 65.4296 20V10.6875C65.4296 8.625 65.2387 6.9375 64.5386 5.1875L70.776 4.5625V18.625C70.776 21.75 71.0942 23.125 71.6034 24.625H65.4933V20.625H65.4296C64.5386 23.1875 62.8837 25 59.3831 25C54.9914 25 53.3366 22.375 53.3366 18.5V10.6875C53.3366 8.625 53.1457 6.9375 52.4455 5.1875L58.8103 4.5625ZM79.3048 9.3125C80.1958 5.625 81.9143 4.1875 84.2056 4.1875C86.306 4.1875 87.388 5.25 87.388 6.9375C87.388 8.4375 86.4969 9.6875 84.9058 9.6875C83.951 9.6875 83.3782 9.25 82.9963 8.875C82.5508 8.4375 82.2326 8 81.7234 8C80.6414 8 79.4321 9.8125 79.4321 12.8125V17.8125C79.4321 20.25 79.623 22.6875 80.1322 24.5625H73.3856C74.022 22.75 74.0857 20.25 74.0857 17.9375V10.75C74.0857 8.8125 73.3856 7.0625 72.5581 6.1875L79.1775 4.3125L79.2411 4.375V9.375L79.3048 9.3125ZM92.0979 12.25L98.9082 11.625C98.8446 8.4375 98.3354 6.5625 96.1077 6.5625C93.8164 6.625 92.4798 8.4375 92.0979 12.25ZM96.1714 25C90.9523 25 86.6879 21.625 86.6879 15.125C86.6879 8.5625 90.7613 4.125 96.2987 4.125C101.518 4.125 104 7.375 104 13.5625H92.0979V14.1875C92.0979 19.125 94.7075 21.125 98.2717 21.125C101.518 21.125 102.918 19.875 103.873 18.9375L104 19.25C103.109 22.25 100.69 25 96.1714 25Z" fill="#2F2F2F"/>
</svg>
