<svg width="24" height="24" viewBox="0 0 24 24" fill="none" xmlns="http://www.w3.org/2000/svg">
<path d="M5.38813 1.35185C4.47 0.876114 3.392 0.887113 2.47974 1.35872L13.1717 10.6053L16.7636 7.23804L5.38813 1.35185Z" fill="#E2E2E2"/>
<path d="M1.41067 2.30429C1.1496 2.7044 1 3.16226 1 3.64762V20.3479C1 20.8181 1.1364 21.2663 1.3828 21.6582L12.1349 11.5784L1.41067 2.30429Z" fill="#E2E2E2"/>
<path d="M21.526 9.7014L18.0999 7.92908L14.2499 11.537L18.9681 15.6165L21.5275 14.2924C22.4485 13.8139 23 12.9559 23 11.9962C22.9985 11.0365 22.4485 10.1785 21.526 9.7014Z" fill="#E2E2E2"/>
<path d="M13.2125 12.5104L2.43103 22.6178C2.8989 22.868 3.41223 23 3.92849 23C4.42716 23 4.92876 22.8817 5.38782 22.6439L17.6154 16.3177L13.2125 12.5104Z" fill="#E2E2E2"/>
</svg>
