<svg width="454" height="454" viewBox="0 0 454 454" fill="none" xmlns="http://www.w3.org/2000/svg">
<path d="M377.118 235.971C377.073 166.518 387.515 148.131 349.914 89.4564C312.314 30.7814 220.016 17.7879 150.245 61.3084C80.4744 104.829 61.6788 160.789 61.6788 160.789C61.6788 160.789 36.3637 226.156 71.9392 291.995C104.473 352.213 168.541 386.436 224.12 414.593H366.213C374.612 407.547 381.958 398.948 387.932 388.897C416.861 340.191 377.172 305.424 377.118 235.971Z" fill="#B4B5B6"/>
<path opacity="0.7" d="M377.118 235.971C377.073 166.518 387.515 148.131 349.914 89.4564C312.314 30.7814 220.016 17.7879 150.245 61.3084C80.4744 104.829 61.6788 160.789 61.6788 160.789C61.6788 160.789 36.3637 226.156 71.9392 291.995C104.473 352.213 168.541 386.436 224.12 414.593H366.213C374.612 407.547 381.958 398.948 387.932 388.897C416.861 340.191 377.172 305.424 377.118 235.971Z" fill="white"/>
<path d="M43.3267 414.91H410.685" stroke="#2D2E35" stroke-width="0.624143" stroke-miterlimit="10" stroke-linecap="round" stroke-linejoin="round"/>
<path d="M229.712 223.443L223.728 337.37L147.919 333.393L148.555 321.316L153.903 219.457L201.636 221.963L229.712 223.443Z" fill="white"/>
<path opacity="0.2" d="M206.052 290.187L188.973 291.595L193.958 313.105L148.558 321.313L153.906 219.454L201.64 221.96L206.052 290.187Z" fill="black" fill-opacity="0.7"/>
<path d="M229.712 223.443L223.728 337.37L147.919 333.393L148.555 321.316L153.903 219.457L201.636 221.963L229.712 223.443Z" stroke="#2D2E35" stroke-width="0.624143" stroke-miterlimit="10" stroke-linecap="round" stroke-linejoin="round"/>
<path d="M159.25 227.246L178.981 228.281" stroke="#2D2E35" stroke-width="1.24829" stroke-miterlimit="10" stroke-linecap="round" stroke-linejoin="round"/>
<path d="M159.05 231.031L172.471 231.74" stroke="#2D2E35" stroke-width="1.24829" stroke-miterlimit="10" stroke-linecap="round" stroke-linejoin="round"/>
<path d="M163.395 240.231L220.145 243.209" stroke="#2D2E35" stroke-width="0.922297" stroke-miterlimit="10" stroke-linecap="round" stroke-linejoin="round"/>
<path d="M163.194 244.016L219.944 246.994" stroke="#2D2E35" stroke-width="0.922297" stroke-miterlimit="10" stroke-linecap="round" stroke-linejoin="round"/>
<path d="M162.966 248.44L211.362 250.973" stroke="#2D2E35" stroke-width="0.922297" stroke-miterlimit="10" stroke-linecap="round" stroke-linejoin="round"/>
<path d="M167.593 252.712L162.978 252.47L162.735 257.085L167.351 257.328L167.593 252.712Z" stroke="#2D2E35" stroke-width="0.624143" stroke-miterlimit="10" stroke-linecap="round" stroke-linejoin="round"/>
<path d="M175.958 253.15L171.343 252.907L171.1 257.523L175.715 257.765L175.958 253.15Z" stroke="#2D2E35" stroke-width="0.624143" stroke-miterlimit="10" stroke-linecap="round" stroke-linejoin="round"/>
<path d="M184.346 253.579L179.731 253.337L179.489 257.952L184.104 258.194L184.346 253.579Z" stroke="#2D2E35" stroke-width="0.624143" stroke-miterlimit="10" stroke-linecap="round" stroke-linejoin="round"/>
<path d="M192.706 254.014L188.091 253.771L187.848 258.387L192.464 258.629L192.706 254.014Z" stroke="#2D2E35" stroke-width="0.624143" stroke-miterlimit="10" stroke-linecap="round" stroke-linejoin="round"/>
<path d="M160.359 240.062C160.392 239.426 159.904 238.884 159.268 238.85C158.632 238.817 158.089 239.305 158.056 239.941C158.022 240.577 158.511 241.12 159.147 241.153C159.783 241.187 160.325 240.698 160.359 240.062Z" fill="#2D2E35"/>
<path d="M162.227 262.319L218.977 265.297" stroke="#2D2E35" stroke-width="0.922297" stroke-miterlimit="10" stroke-linecap="round" stroke-linejoin="round"/>
<path d="M162.026 266.104L218.776 269.082" stroke="#2D2E35" stroke-width="0.922297" stroke-miterlimit="10" stroke-linecap="round" stroke-linejoin="round"/>
<path d="M161.798 270.528L210.195 273.061" stroke="#2D2E35" stroke-width="0.922297" stroke-miterlimit="10" stroke-linecap="round" stroke-linejoin="round"/>
<path d="M166.452 274.79L161.837 274.548L161.595 279.163L166.21 279.405L166.452 274.79Z" stroke="#2D2E35" stroke-width="0.624143" stroke-miterlimit="10" stroke-linecap="round" stroke-linejoin="round"/>
<path d="M174.817 275.225L170.202 274.983L169.959 279.598L174.575 279.84L174.817 275.225Z" stroke="#2D2E35" stroke-width="0.624143" stroke-miterlimit="10" stroke-linecap="round" stroke-linejoin="round"/>
<path d="M183.182 275.671L178.567 275.429L178.325 280.044L182.94 280.286L183.182 275.671Z" stroke="#2D2E35" stroke-width="0.624143" stroke-miterlimit="10" stroke-linecap="round" stroke-linejoin="round"/>
<path d="M191.548 276.107L186.932 275.865L186.69 280.48L191.305 280.723L191.548 276.107Z" stroke="#2D2E35" stroke-width="0.624143" stroke-miterlimit="10" stroke-linecap="round" stroke-linejoin="round"/>
<path d="M159.213 262.172C159.246 261.536 158.758 260.994 158.122 260.96C157.486 260.927 156.943 261.415 156.91 262.051C156.876 262.687 157.365 263.23 158.001 263.263C158.637 263.297 159.179 262.808 159.213 262.172Z" fill="#2D2E35"/>
<path d="M161.076 284.413L217.817 287.391" stroke="#2D2E35" stroke-width="0.922297" stroke-miterlimit="10" stroke-linecap="round" stroke-linejoin="round"/>
<path d="M160.87 288.198L217.611 291.176" stroke="#2D2E35" stroke-width="0.922297" stroke-miterlimit="10" stroke-linecap="round" stroke-linejoin="round"/>
<path d="M160.636 292.622L209.032 295.155" stroke="#2D2E35" stroke-width="0.922297" stroke-miterlimit="10" stroke-linecap="round" stroke-linejoin="round"/>
<path d="M165.274 296.894L160.659 296.652L160.417 301.267L165.032 301.51L165.274 296.894Z" stroke="#2D2E35" stroke-width="0.624143" stroke-miterlimit="10" stroke-linecap="round" stroke-linejoin="round"/>
<path d="M173.634 297.332L169.018 297.089L168.776 301.705L173.391 301.947L173.634 297.332Z" stroke="#2D2E35" stroke-width="0.624143" stroke-miterlimit="10" stroke-linecap="round" stroke-linejoin="round"/>
<path d="M182.022 297.761L177.406 297.519L177.164 302.134L181.78 302.376L182.022 297.761Z" stroke="#2D2E35" stroke-width="0.624143" stroke-miterlimit="10" stroke-linecap="round" stroke-linejoin="round"/>
<path d="M190.37 298.213L185.755 297.97L185.512 302.586L190.127 302.828L190.37 298.213Z" stroke="#2D2E35" stroke-width="0.624143" stroke-miterlimit="10" stroke-linecap="round" stroke-linejoin="round"/>
<path d="M158.038 284.239C158.071 283.603 157.583 283.06 156.947 283.027C156.311 282.993 155.768 283.482 155.735 284.118C155.701 284.754 156.19 285.296 156.826 285.33C157.462 285.363 158.004 284.875 158.038 284.239Z" fill="#2D2E35"/>
<path d="M159.878 307.133L216.619 310.12" stroke="#2D2E35" stroke-width="0.922297" stroke-miterlimit="10" stroke-linecap="round" stroke-linejoin="round"/>
<path d="M159.677 310.918L216.427 313.905" stroke="#2D2E35" stroke-width="0.922297" stroke-miterlimit="10" stroke-linecap="round" stroke-linejoin="round"/>
<path d="M159.449 315.341L207.846 317.884" stroke="#2D2E35" stroke-width="0.922297" stroke-miterlimit="10" stroke-linecap="round" stroke-linejoin="round"/>
<path d="M164.1 319.598L159.485 319.356L159.243 323.971L163.858 324.213L164.1 319.598Z" stroke="#2D2E35" stroke-width="0.624143" stroke-miterlimit="10" stroke-linecap="round" stroke-linejoin="round"/>
<path d="M172.448 320.055L167.833 319.812L167.59 324.427L172.205 324.67L172.448 320.055Z" stroke="#2D2E35" stroke-width="0.624143" stroke-miterlimit="10" stroke-linecap="round" stroke-linejoin="round"/>
<path d="M180.813 320.492L176.198 320.25L175.955 324.865L180.571 325.108L180.813 320.492Z" stroke="#2D2E35" stroke-width="0.624143" stroke-miterlimit="10" stroke-linecap="round" stroke-linejoin="round"/>
<path d="M189.178 320.937L184.563 320.695L184.321 325.31L188.936 325.553L189.178 320.937Z" stroke="#2D2E35" stroke-width="0.624143" stroke-miterlimit="10" stroke-linecap="round" stroke-linejoin="round"/>
<path d="M156.841 306.965C156.874 306.329 156.385 305.787 155.749 305.753C155.113 305.72 154.571 306.209 154.537 306.845C154.504 307.481 154.993 308.023 155.629 308.057C156.265 308.09 156.807 307.601 156.841 306.965Z" fill="#2D2E35"/>
<path d="M164.553 254.394L165.152 255.429L167.613 252.714" stroke="#2D2E35" stroke-width="1.24829" stroke-miterlimit="10" stroke-linecap="round" stroke-linejoin="round"/>
<path d="M180.138 277.085L180.737 278.121L183.198 275.406" stroke="#2D2E35" stroke-width="1.24829" stroke-miterlimit="10" stroke-linecap="round" stroke-linejoin="round"/>
<path d="M187.123 299.415L187.784 300.556L190.497 297.552" stroke="#2D2E35" stroke-width="0.922297" stroke-miterlimit="10" stroke-linecap="round" stroke-linejoin="round"/>
<path d="M168.716 322.422L169.377 323.564L172.09 320.56" stroke="#2D2E35" stroke-width="0.922297" stroke-miterlimit="10" stroke-linecap="round" stroke-linejoin="round"/>
<path d="M179.338 305.125L106.198 325.455L75.6531 215.524L105.935 207.107L148.792 195.203L176.505 294.947L179.338 305.125Z" fill="white"/>
<path opacity="0.2" d="M176.502 294.946L119.952 298.596L105.932 207.106L148.79 195.202L176.502 294.946Z" fill="black" fill-opacity="0.7"/>
<path d="M179.338 305.125L106.198 325.455L75.6531 215.524L105.935 207.107L148.792 195.203L176.505 294.947L179.338 305.125Z" stroke="#2D2E35" stroke-width="0.624143" stroke-miterlimit="10" stroke-linecap="round" stroke-linejoin="round"/>
<path d="M83.2085 221.206L102.24 215.921" stroke="#2D2E35" stroke-width="1.24829" stroke-miterlimit="10" stroke-linecap="round" stroke-linejoin="round"/>
<path d="M84.2119 224.867L97.16 221.272" stroke="#2D2E35" stroke-width="1.24829" stroke-miterlimit="10" stroke-linecap="round" stroke-linejoin="round"/>
<path d="M91.2544 232.204L146.007 216.995" stroke="#2D2E35" stroke-width="0.922297" stroke-miterlimit="10" stroke-linecap="round" stroke-linejoin="round"/>
<path d="M92.2686 235.853L147.021 220.644" stroke="#2D2E35" stroke-width="0.922297" stroke-miterlimit="10" stroke-linecap="round" stroke-linejoin="round"/>
<path d="M93.4487 240.12L140.147 227.145" stroke="#2D2E35" stroke-width="0.922297" stroke-miterlimit="10" stroke-linecap="round" stroke-linejoin="round"/>
<path d="M99.2126 242.706L94.7595 243.943L95.9968 248.396L100.45 247.159L99.2126 242.706Z" stroke="#2D2E35" stroke-width="0.624143" stroke-miterlimit="10" stroke-linecap="round" stroke-linejoin="round"/>
<path d="M107.287 240.459L102.834 241.697L104.071 246.15L108.524 244.912L107.287 240.459Z" stroke="#2D2E35" stroke-width="0.624143" stroke-miterlimit="10" stroke-linecap="round" stroke-linejoin="round"/>
<path d="M115.362 238.217L110.909 239.454L112.146 243.907L116.599 242.67L115.362 238.217Z" stroke="#2D2E35" stroke-width="0.624143" stroke-miterlimit="10" stroke-linecap="round" stroke-linejoin="round"/>
<path d="M123.425 235.976L118.972 237.213L120.209 241.666L124.662 240.429L123.425 235.976Z" stroke="#2D2E35" stroke-width="0.624143" stroke-miterlimit="10" stroke-linecap="round" stroke-linejoin="round"/>
<path d="M97.175 253.514L151.927 238.305" stroke="#2D2E35" stroke-width="0.922297" stroke-miterlimit="10" stroke-linecap="round" stroke-linejoin="round"/>
<path d="M98.1958 257.174L152.948 241.956" stroke="#2D2E35" stroke-width="0.922297" stroke-miterlimit="10" stroke-linecap="round" stroke-linejoin="round"/>
<path d="M99.3818 261.432L146.071 248.456" stroke="#2D2E35" stroke-width="0.922297" stroke-miterlimit="10" stroke-linecap="round" stroke-linejoin="round"/>
<path d="M105.134 264.016L100.681 265.253L101.918 269.706L106.371 268.469L105.134 264.016Z" stroke="#2D2E35" stroke-width="0.624143" stroke-miterlimit="10" stroke-linecap="round" stroke-linejoin="round"/>
<path d="M113.203 261.775L108.75 263.012L109.987 267.465L114.44 266.228L113.203 261.775Z" stroke="#2D2E35" stroke-width="0.624143" stroke-miterlimit="10" stroke-linecap="round" stroke-linejoin="round"/>
<path d="M121.277 259.532L116.824 260.77L118.061 265.223L122.514 263.985L121.277 259.532Z" stroke="#2D2E35" stroke-width="0.624143" stroke-miterlimit="10" stroke-linecap="round" stroke-linejoin="round"/>
<path d="M129.352 257.286L124.899 258.523L126.136 262.976L130.589 261.739L129.352 257.286Z" stroke="#2D2E35" stroke-width="0.624143" stroke-miterlimit="10" stroke-linecap="round" stroke-linejoin="round"/>
<path d="M103.1 274.835L157.843 259.616" stroke="#2D2E35" stroke-width="0.922297" stroke-miterlimit="10" stroke-linecap="round" stroke-linejoin="round"/>
<path d="M104.121 278.482L158.864 263.273" stroke="#2D2E35" stroke-width="0.922297" stroke-miterlimit="10" stroke-linecap="round" stroke-linejoin="round"/>
<path d="M105.301 282.75L152 269.775" stroke="#2D2E35" stroke-width="0.922297" stroke-miterlimit="10" stroke-linecap="round" stroke-linejoin="round"/>
<path d="M111.048 285.333L106.595 286.57L107.832 291.023L112.285 289.786L111.048 285.333Z" stroke="#2D2E35" stroke-width="0.624143" stroke-miterlimit="10" stroke-linecap="round" stroke-linejoin="round"/>
<path d="M119.122 283.088L114.669 284.325L115.907 288.778L120.36 287.541L119.122 283.088Z" stroke="#2D2E35" stroke-width="0.624143" stroke-miterlimit="10" stroke-linecap="round" stroke-linejoin="round"/>
<path d="M127.197 280.848L122.744 282.085L123.981 286.538L128.434 285.301L127.197 280.848Z" stroke="#2D2E35" stroke-width="0.624143" stroke-miterlimit="10" stroke-linecap="round" stroke-linejoin="round"/>
<path d="M135.266 278.604L130.813 279.841L132.05 284.294L136.503 283.057L135.266 278.604Z" stroke="#2D2E35" stroke-width="0.624143" stroke-miterlimit="10" stroke-linecap="round" stroke-linejoin="round"/>
<path d="M109.188 296.753L163.932 281.544" stroke="#2D2E35" stroke-width="0.922297" stroke-miterlimit="10" stroke-linecap="round" stroke-linejoin="round"/>
<path d="M110.198 300.414L164.95 285.196" stroke="#2D2E35" stroke-width="0.922297" stroke-miterlimit="10" stroke-linecap="round" stroke-linejoin="round"/>
<path d="M111.389 304.669L158.088 291.694" stroke="#2D2E35" stroke-width="0.922297" stroke-miterlimit="10" stroke-linecap="round" stroke-linejoin="round"/>
<path d="M117.147 307.257L112.694 308.494L113.932 312.947L118.385 311.71L117.147 307.257Z" stroke="#2D2E35" stroke-width="0.624143" stroke-miterlimit="10" stroke-linecap="round" stroke-linejoin="round"/>
<path d="M125.216 305.014L120.763 306.252L122 310.705L126.453 309.468L125.216 305.014Z" stroke="#2D2E35" stroke-width="0.624143" stroke-miterlimit="10" stroke-linecap="round" stroke-linejoin="round"/>
<path d="M133.297 302.772L128.844 304.009L130.081 308.462L134.534 307.225L133.297 302.772Z" stroke="#2D2E35" stroke-width="0.624143" stroke-miterlimit="10" stroke-linecap="round" stroke-linejoin="round"/>
<path d="M141.365 300.528L136.912 301.765L138.15 306.218L142.603 304.981L141.365 300.528Z" stroke="#2D2E35" stroke-width="0.624143" stroke-miterlimit="10" stroke-linecap="round" stroke-linejoin="round"/>
<path d="M104.45 243.235L105.381 244.053L106.904 240.574" stroke="#2D2E35" stroke-width="0.922297" stroke-miterlimit="10" stroke-linecap="round" stroke-linejoin="round"/>
<path d="M102.266 267.027L103.2 267.848L104.72 264.356" stroke="#2D2E35" stroke-width="0.922297" stroke-miterlimit="10" stroke-linecap="round" stroke-linejoin="round"/>
<path d="M108.185 288.12L109.119 288.941L110.639 285.449" stroke="#2D2E35" stroke-width="0.922297" stroke-miterlimit="10" stroke-linecap="round" stroke-linejoin="round"/>
<path d="M130.407 305.388L131.338 306.206L132.861 302.727" stroke="#2D2E35" stroke-width="0.922297" stroke-miterlimit="10" stroke-linecap="round" stroke-linejoin="round"/>
<path d="M186.469 169.823L110.909 177.08L121.816 290.645L197.376 283.388L186.469 169.823Z" fill="white" stroke="#2D2E35" stroke-width="0.624143" stroke-miterlimit="10" stroke-linecap="round" stroke-linejoin="round"/>
<path d="M117.359 183.995L137.026 182.106" stroke="#2D2E35" stroke-width="1.24829" stroke-miterlimit="10" stroke-linecap="round" stroke-linejoin="round"/>
<path d="M117.724 187.775L131.098 186.486" stroke="#2D2E35" stroke-width="1.24829" stroke-miterlimit="10" stroke-linecap="round" stroke-linejoin="round"/>
<path d="M123.371 196.229L179.93 190.79" stroke="#2D2E35" stroke-width="0.922297" stroke-miterlimit="10" stroke-linecap="round" stroke-linejoin="round"/>
<path d="M123.736 199.997L180.295 194.568" stroke="#2D2E35" stroke-width="0.922297" stroke-miterlimit="10" stroke-linecap="round" stroke-linejoin="round"/>
<path d="M124.164 204.403L172.406 199.772" stroke="#2D2E35" stroke-width="0.922297" stroke-miterlimit="10" stroke-linecap="round" stroke-linejoin="round"/>
<path d="M129.378 207.949L124.778 208.391L125.219 212.992L129.82 212.55L129.378 207.949Z" stroke="#2D2E35" stroke-width="0.624143" stroke-miterlimit="10" stroke-linecap="round" stroke-linejoin="round"/>
<path d="M137.721 207.147L133.12 207.589L133.562 212.189L138.162 211.747L137.721 207.147Z" stroke="#2D2E35" stroke-width="0.624143" stroke-miterlimit="10" stroke-linecap="round" stroke-linejoin="round"/>
<path d="M146.063 206.349L141.463 206.79L141.904 211.391L146.505 210.949L146.063 206.349Z" stroke="#2D2E35" stroke-width="0.624143" stroke-miterlimit="10" stroke-linecap="round" stroke-linejoin="round"/>
<path d="M154.4 205.542L149.8 205.983L150.241 210.584L154.842 210.142L154.4 205.542Z" stroke="#2D2E35" stroke-width="0.624143" stroke-miterlimit="10" stroke-linecap="round" stroke-linejoin="round"/>
<path d="M125.486 218.247L182.045 212.818" stroke="#2D2E35" stroke-width="0.922297" stroke-miterlimit="10" stroke-linecap="round" stroke-linejoin="round"/>
<path d="M125.851 222.026L182.41 216.587" stroke="#2D2E35" stroke-width="0.922297" stroke-miterlimit="10" stroke-linecap="round" stroke-linejoin="round"/>
<path d="M126.279 226.427L174.521 221.787" stroke="#2D2E35" stroke-width="0.922297" stroke-miterlimit="10" stroke-linecap="round" stroke-linejoin="round"/>
<path d="M131.499 229.966L126.899 230.408L127.341 235.009L131.941 234.567L131.499 229.966Z" stroke="#2D2E35" stroke-width="0.624143" stroke-miterlimit="10" stroke-linecap="round" stroke-linejoin="round"/>
<path d="M139.83 229.167L135.23 229.608L135.672 234.209L140.272 233.767L139.83 229.167Z" stroke="#2D2E35" stroke-width="0.624143" stroke-miterlimit="10" stroke-linecap="round" stroke-linejoin="round"/>
<path d="M148.173 228.365L143.573 228.807L144.015 233.408L148.615 232.966L148.173 228.365Z" stroke="#2D2E35" stroke-width="0.624143" stroke-miterlimit="10" stroke-linecap="round" stroke-linejoin="round"/>
<path d="M156.51 227.573L151.909 228.015L152.351 232.615L156.952 232.173L156.51 227.573Z" stroke="#2D2E35" stroke-width="0.624143" stroke-miterlimit="10" stroke-linecap="round" stroke-linejoin="round"/>
<path d="M127.604 240.264L184.163 234.834" stroke="#2D2E35" stroke-width="0.922297" stroke-miterlimit="10" stroke-linecap="round" stroke-linejoin="round"/>
<path d="M127.969 244.043L184.528 238.604" stroke="#2D2E35" stroke-width="0.922297" stroke-miterlimit="10" stroke-linecap="round" stroke-linejoin="round"/>
<path d="M128.397 248.448L176.639 243.817" stroke="#2D2E35" stroke-width="0.922297" stroke-miterlimit="10" stroke-linecap="round" stroke-linejoin="round"/>
<path d="M133.611 251.983L129.01 252.425L129.452 257.026L134.053 256.584L133.611 251.983Z" stroke="#2D2E35" stroke-width="0.624143" stroke-miterlimit="10" stroke-linecap="round" stroke-linejoin="round"/>
<path d="M141.942 251.188L137.342 251.63L137.783 256.23L142.384 255.788L141.942 251.188Z" stroke="#2D2E35" stroke-width="0.624143" stroke-miterlimit="10" stroke-linecap="round" stroke-linejoin="round"/>
<path d="M150.285 250.382L145.684 250.824L146.126 255.425L150.727 254.983L150.285 250.382Z" stroke="#2D2E35" stroke-width="0.624143" stroke-miterlimit="10" stroke-linecap="round" stroke-linejoin="round"/>
<path d="M158.627 249.587L154.027 250.029L154.469 254.629L159.069 254.187L158.627 249.587Z" stroke="#2D2E35" stroke-width="0.624143" stroke-miterlimit="10" stroke-linecap="round" stroke-linejoin="round"/>
<path d="M129.775 262.921L186.334 257.482" stroke="#2D2E35" stroke-width="0.922297" stroke-miterlimit="10" stroke-linecap="round" stroke-linejoin="round"/>
<path d="M130.14 266.691L186.699 261.261" stroke="#2D2E35" stroke-width="0.922297" stroke-miterlimit="10" stroke-linecap="round" stroke-linejoin="round"/>
<path d="M130.556 271.094L178.798 266.463" stroke="#2D2E35" stroke-width="0.922297" stroke-miterlimit="10" stroke-linecap="round" stroke-linejoin="round"/>
<path d="M135.777 274.641L131.177 275.082L131.619 279.683L136.219 279.241L135.777 274.641Z" stroke="#2D2E35" stroke-width="0.624143" stroke-miterlimit="10" stroke-linecap="round" stroke-linejoin="round"/>
<path d="M144.126 273.841L139.525 274.283L139.967 278.883L144.568 278.441L144.126 273.841Z" stroke="#2D2E35" stroke-width="0.624143" stroke-miterlimit="10" stroke-linecap="round" stroke-linejoin="round"/>
<path d="M152.457 273.034L147.856 273.476L148.298 278.076L152.899 277.634L152.457 273.034Z" stroke="#2D2E35" stroke-width="0.624143" stroke-miterlimit="10" stroke-linecap="round" stroke-linejoin="round"/>
<path d="M160.799 272.233L156.199 272.674L156.641 277.275L161.241 276.833L160.799 272.233Z" stroke="#2D2E35" stroke-width="0.624143" stroke-miterlimit="10" stroke-linecap="round" stroke-linejoin="round"/>
<path d="M126.608 210.168L127.389 211.149L129.522 207.949" stroke="#2D2E35" stroke-width="0.922297" stroke-miterlimit="10" stroke-linecap="round" stroke-linejoin="round"/>
<path d="M145.38 230.315L146.164 231.299L148.295 228.089" stroke="#2D2E35" stroke-width="0.922297" stroke-miterlimit="10" stroke-linecap="round" stroke-linejoin="round"/>
<path d="M139.193 253.589L139.974 254.57L142.107 251.37" stroke="#2D2E35" stroke-width="0.922297" stroke-miterlimit="10" stroke-linecap="round" stroke-linejoin="round"/>
<path d="M157.926 274.463L158.706 275.444L160.84 272.244" stroke="#2D2E35" stroke-width="0.922297" stroke-miterlimit="10" stroke-linecap="round" stroke-linejoin="round"/>
<path d="M278.892 125.041H231.984C228.534 125.041 225.737 127.838 225.737 131.288V171.585C225.737 175.035 228.534 177.832 231.984 177.832H252.778L264.69 192.197L261.703 177.832H278.892C282.342 177.832 285.139 175.035 285.139 171.585V131.288C285.139 127.838 282.342 125.041 278.892 125.041Z" fill="white" stroke="#2D2E35" stroke-width="0.624143" stroke-miterlimit="10" stroke-linecap="round" stroke-linejoin="round"/>
<path d="M259.187 147.159V142.892L255.991 142.619C255.8 141.948 255.537 141.303 255.201 140.704L257.262 138.252L254.247 135.237L251.796 137.299C251.196 136.963 250.552 136.699 249.88 136.509L249.607 133.312H245.34L245.067 136.509C244.396 136.699 243.751 136.963 243.152 137.299L240.7 135.237L237.685 138.252L239.747 140.704C239.411 141.303 239.147 141.948 238.957 142.619L235.76 142.892V147.159L238.957 147.432C239.147 148.104 239.411 148.748 239.747 149.348L237.685 151.799L240.7 154.814L243.152 152.753C243.751 153.089 244.396 153.352 245.067 153.543L245.34 156.739H249.607L249.88 153.543C250.552 153.352 251.196 153.089 251.796 152.753L254.247 154.814L257.262 151.799L255.201 149.348C255.537 148.748 255.8 148.104 255.991 147.432L259.187 147.159ZM247.465 149.992C244.722 149.992 242.507 147.768 242.507 145.035C242.507 142.293 244.732 140.077 247.465 140.077C250.198 140.077 252.422 142.302 252.422 145.035C252.422 147.768 250.207 149.992 247.465 149.992Z" fill="#2F2F2F"/>
<path d="M273.308 156.695V153.662L271.029 153.462C270.893 152.981 270.702 152.527 270.466 152.1L271.937 150.357L269.794 148.214L268.051 149.685C267.624 149.449 267.17 149.258 266.689 149.122L266.489 146.843H263.456L263.256 149.122C262.775 149.258 262.321 149.449 261.894 149.685L260.151 148.214L258.008 150.357L259.479 152.1C259.243 152.527 259.052 152.981 258.916 153.462L256.637 153.662V156.695L258.916 156.894C259.052 157.376 259.243 157.83 259.479 158.256L258.008 160L260.151 162.143L261.894 160.672C262.321 160.908 262.775 161.098 263.256 161.235L263.456 163.514H266.489L266.689 161.235C267.17 161.098 267.624 160.908 268.051 160.672L269.794 162.143L271.937 160L270.466 158.256C270.702 157.83 270.893 157.376 271.029 156.894L273.308 156.695ZM264.963 158.701C263.011 158.701 261.431 157.121 261.431 155.169C261.431 153.217 263.011 151.637 264.963 151.637C266.916 151.637 268.495 153.217 268.495 155.169C268.495 157.121 266.916 158.701 264.963 158.701Z" fill="#2F2F2F"/>
<path d="M258.453 163.758V161.597L256.837 161.46C256.737 161.115 256.61 160.797 256.438 160.489L257.482 159.245L255.956 157.719L254.712 158.764C254.413 158.591 254.086 158.464 253.741 158.364L253.605 156.748H251.444L251.307 158.364C250.962 158.464 250.645 158.591 250.336 158.764L249.092 157.719L247.567 159.245L248.611 160.489C248.438 160.788 248.311 161.115 248.211 161.46L246.595 161.597V163.758L248.211 163.894C248.311 164.239 248.438 164.557 248.611 164.865L247.567 166.109L249.092 167.635L250.336 166.591C250.636 166.763 250.962 166.89 251.307 166.99L251.444 168.606H253.605L253.741 166.99C254.086 166.89 254.404 166.763 254.712 166.591L255.956 167.635L257.482 166.109L256.438 164.865C256.61 164.566 256.737 164.239 256.837 163.894L258.453 163.758ZM252.515 165.192C251.126 165.192 250 164.066 250 162.677C250 161.288 251.126 160.162 252.515 160.162C253.904 160.162 255.03 161.288 255.03 162.677C255.03 164.066 253.904 165.192 252.515 165.192Z" fill="#2F2F2F"/>
<path d="M254.175 280.002L290.749 414.913H296.215L259.65 280.002H254.175Z" fill="#757575" stroke="#2D2E35" stroke-width="0.953041" stroke-miterlimit="10" stroke-linecap="round" stroke-linejoin="round"/>
<path d="M336.548 376.667H267.222V382.315H336.548V376.667Z" fill="#999999" stroke="#2D2E35" stroke-width="0.953041" stroke-miterlimit="10" stroke-linecap="round" stroke-linejoin="round"/>
<path d="M373.526 249.693L328.744 414.912H323.277L368.06 249.693C369.712 243.6 365.926 238.642 359.616 238.642H321.026C314.724 238.642 308.241 243.591 306.588 249.693L261.806 414.912H256.34L301.122 249.693C303.565 240.676 313.117 233.367 322.46 233.367H361.05C370.375 233.367 375.969 240.676 373.526 249.693Z" fill="#757575" stroke="#2D2E35" stroke-width="0.953041" stroke-miterlimit="10" stroke-linecap="round" stroke-linejoin="round"/>
<path d="M374.241 249.747L363.127 290.77C362.21 294.157 358.624 296.899 355.119 296.899H291.704C288.199 296.899 286.102 294.157 287.019 290.77L298.142 249.747C299.059 246.369 302.646 243.618 306.151 243.618H369.556C373.061 243.618 375.158 246.369 374.241 249.747Z" fill="#9D9D9D"/>
<path opacity="0.2" d="M374.241 249.747L363.127 290.77C362.21 294.157 358.624 296.899 355.119 296.899H291.704C288.199 296.899 286.102 294.157 287.019 290.77L298.142 249.747C299.059 246.369 302.646 243.618 306.151 243.618H338.938C353.112 258.173 351.305 284.923 350.379 293.004C353.285 292.314 355.936 289.926 356.708 287.084L367.831 246.06C368.067 245.189 368.103 244.362 367.967 243.618H369.556C373.061 243.618 375.158 246.369 374.241 249.747Z" fill="black" fill-opacity="0.7"/>
<path d="M374.241 249.747L363.127 290.77C362.21 294.157 358.624 296.899 355.119 296.899H291.704C288.199 296.899 286.102 294.157 287.019 290.77L298.142 249.747C299.059 246.369 302.646 243.618 306.151 243.618H369.556C373.061 243.618 375.158 246.369 374.241 249.747Z" stroke="#2D2E35" stroke-width="0.953041" stroke-miterlimit="10" stroke-linecap="round" stroke-linejoin="round"/>
<path d="M336.956 338.423L357.695 414.913H363.161L342.431 338.423H336.956Z" fill="#757575" stroke="#2D2E35" stroke-width="0.953041" stroke-miterlimit="10" stroke-linecap="round" stroke-linejoin="round"/>
<path d="M342.448 329.642V337.124H260.801V329.642C260.801 326.6 263.262 324.14 266.304 324.14H336.937C339.479 324.14 341.622 325.856 342.258 328.198C342.385 328.652 342.448 329.143 342.448 329.642Z" fill="#9D9D9D"/>
<path opacity="0.2" d="M342.258 328.198C339.615 331.304 334.876 334.464 326.722 337.124H260.801V329.642C260.801 326.6 263.262 324.14 266.304 324.14H336.937C339.479 324.14 341.622 325.856 342.258 328.198Z" fill="black" fill-opacity="0.7"/>
<path d="M342.448 329.642V337.124H260.801V329.642C260.801 326.6 263.262 324.14 266.304 324.14H336.937C339.479 324.14 341.622 325.856 342.258 328.198C342.385 328.652 342.448 329.143 342.448 329.642Z" stroke="#2D2E35" stroke-width="0.953041" stroke-miterlimit="10" stroke-linecap="round" stroke-linejoin="round"/>
<path d="M345.225 341.855H258.738C257.885 341.855 257.186 341.165 257.186 340.303V336.38C257.186 335.527 257.876 334.827 258.738 334.827H345.225C346.079 334.827 346.778 335.517 346.778 336.38V340.303C346.769 341.156 346.079 341.855 345.225 341.855Z" fill="#999999" stroke="#2D2E35" stroke-width="0.953041" stroke-miterlimit="10" stroke-linecap="round" stroke-linejoin="round"/>
<path d="M258.152 335.088C254.239 339.074 273.207 401.708 273.207 401.708C271.137 403.506 268.086 404.36 265.199 404.741C261.022 405.295 257.199 404.859 257.199 404.859C257.199 404.859 230.014 338.92 237.495 322.558C244.977 306.196 291.403 298.705 291.403 298.705L293.383 293.802L317.399 290.424L321.367 319.834C321.367 319.834 317.427 320.215 311.497 320.978C295.598 323.021 265.344 327.77 258.152 335.088Z" fill="#2F2F2F"/>
<path opacity="0.3" d="M273.207 401.709C271.137 403.507 268.086 404.36 265.198 404.741C259.923 385.129 246.493 332.792 251.587 326.39C257.862 318.491 288.915 311.308 288.915 311.308C289.042 307.277 299.929 303.645 299.929 303.645L311.497 320.978C295.598 323.021 265.343 327.77 258.152 335.089C254.239 339.075 273.207 401.709 273.207 401.709Z" fill="black"/>
<path d="M258.152 335.088C254.239 339.074 273.207 401.708 273.207 401.708C271.137 403.506 268.086 404.36 265.199 404.741C261.022 405.295 257.199 404.859 257.199 404.859C257.199 404.859 230.014 338.92 237.495 322.558C244.977 306.196 291.403 298.705 291.403 298.705L293.383 293.802L317.399 290.424L321.367 319.834C321.367 319.834 317.427 320.215 311.497 320.978C295.598 323.021 265.344 327.77 258.152 335.088Z" stroke="#2F2F2F" stroke-width="0.953041" stroke-miterlimit="10" stroke-linecap="round" stroke-linejoin="round"/>
<path d="M244.717 275.771C240.731 275.081 269.106 250.211 269.106 250.211L282.79 259.418C282.79 259.418 259.509 275.816 255.849 276.261C252.19 276.715 244.717 275.771 244.717 275.771Z" fill="white"/>
<path opacity="0.2" d="M244.717 275.771C240.731 275.081 269.106 250.211 269.106 250.211L282.79 259.418C282.79 259.418 259.509 275.816 255.849 276.261C252.19 276.715 244.717 275.771 244.717 275.771Z" fill="black" fill-opacity="0.7"/>
<path d="M244.717 275.771C240.731 275.081 269.106 250.211 269.106 250.211L282.79 259.418C282.79 259.418 259.509 275.816 255.849 276.261C252.19 276.715 244.717 275.771 244.717 275.771Z" stroke="#2F2F2F" stroke-width="0.953041" stroke-miterlimit="10" stroke-linecap="round" stroke-linejoin="round"/>
<path d="M249.718 265.309C249.718 265.309 255.666 266.789 257.482 268.06C259.298 269.331 258.789 273.807 258.789 273.807C258.789 273.807 250.844 271.537 249.718 265.309Z" fill="white" stroke="#2F2F2F" stroke-width="0.953041" stroke-miterlimit="10" stroke-linecap="round" stroke-linejoin="round"/>
<path d="M245.909 253.921L256.968 275.123H258.276L247.77 252.867L245.909 253.921Z" fill="#2F2F2F"/>
<path d="M255.877 269.247C255.877 269.247 248.904 264.289 247.197 264.289C245.49 264.289 240.378 270.328 240.378 273.351C240.378 276.375 251.519 278.055 253.707 275.485C254.788 274.205 252.636 271.117 252.636 271.117C252.636 271.117 255.877 274.477 256.803 274.976C257.73 275.476 259.437 274.822 259.437 274.822C259.437 274.822 257.121 271.117 255.877 269.247Z" fill="white" stroke="#2F2F2F" stroke-width="0.953041" stroke-miterlimit="10" stroke-linecap="round" stroke-linejoin="round"/>
<path d="M252.63 276.203C252.63 276.203 249.979 272.761 246.81 271.118" stroke="#2F2F2F" stroke-width="0.953041" stroke-miterlimit="10" stroke-linecap="round" stroke-linejoin="round"/>
<path d="M252.641 271.12C252.641 271.12 250.226 269.014 248.601 268.55" stroke="#2F2F2F" stroke-width="0.953041" stroke-miterlimit="10" stroke-linecap="round" stroke-linejoin="round"/>
<path d="M245.031 273.797C245.031 273.797 248.935 275.849 249.907 276.72" stroke="#2F2F2F" stroke-width="0.953041" stroke-miterlimit="10" stroke-linecap="round" stroke-linejoin="round"/>
<path d="M277.997 239.333C274.42 241.83 258.403 258.301 258.403 258.301C258.403 258.301 265.912 266.845 272.495 268.08L290.337 259.418L277.997 239.333Z" fill="#9D9D9D" stroke="#2F2F2F" stroke-width="0.953041" stroke-miterlimit="10" stroke-linecap="round" stroke-linejoin="round"/>
<path opacity="0.4" d="M277.997 239.333C274.42 241.83 258.403 258.301 258.403 258.301C258.403 258.301 265.912 266.845 272.495 268.08L290.337 259.418L277.997 239.333Z" fill="white" stroke="#2F2F2F" stroke-width="0.953041" stroke-miterlimit="10" stroke-linecap="round" stroke-linejoin="round"/>
<path d="M269.376 395.063L276.922 414.912C276.922 414.912 278.175 420.024 255.366 418.408L242.79 417.327L269.376 395.063Z" fill="white"/>
<path opacity="0.3" d="M269.376 395.063L276.922 414.912C276.922 414.912 278.175 420.024 255.366 418.408L242.79 417.327L269.376 395.063Z" fill="white"/>
<path d="M269.376 395.063L276.922 414.912C276.922 414.912 278.175 420.024 255.366 418.408L242.79 417.327L269.376 395.063Z" stroke="#2F2F2F" stroke-width="0.953041" stroke-miterlimit="10" stroke-linecap="round" stroke-linejoin="round"/>
<path d="M266.51 404.578C266.51 404.578 268.126 412.305 266.51 418.052C266.51 418.052 242.438 421.821 237.054 420.386C231.67 418.951 228.401 416.264 228.237 414.911C228.237 414.911 228.428 411.224 233.822 410.144C239.206 409.063 249.948 408.346 254.188 402.244C258.419 396.133 266.51 404.578 266.51 404.578Z" fill="white" stroke="#2F2F2F" stroke-width="0.953041" stroke-miterlimit="10" stroke-linecap="round" stroke-linejoin="round"/>
<path d="M298.277 293.03C305.967 282.062 341.325 295.264 341.325 295.264C341.325 295.264 344.703 321.669 330.62 328.706C316.537 335.743 296.234 335.37 290.749 341.082L268.431 406.984C268.431 406.984 260.413 410.335 248.754 405.059C248.754 405.059 262.928 355.292 267.087 337.622C271.2 320.143 297.841 308.267 297.841 308.267C297.841 308.267 295.598 305.733 294.772 302.746" fill="#2F2F2F"/>
<path d="M298.277 293.03C305.967 282.062 341.325 295.264 341.325 295.264C341.325 295.264 344.703 321.669 330.62 328.706C316.537 335.743 296.234 335.37 290.749 341.082L268.431 406.984C268.431 406.984 260.413 410.335 248.754 405.059C248.754 405.059 262.928 355.292 267.087 337.622C271.2 320.143 297.841 308.267 297.841 308.267C297.841 308.267 295.598 305.733 294.772 302.746" stroke="#2F2F2F" stroke-width="0.953041" stroke-miterlimit="10" stroke-linecap="round" stroke-linejoin="round"/>
<path d="M278.47 243.036C278.17 241.756 278.007 240.512 278.007 239.331C278.007 239.331 288.93 230.142 302.931 230.197C319.638 230.251 329.853 235.509 333.939 242.809C340.413 254.359 341.321 295.273 341.321 295.273C341.321 295.273 299.408 301.738 293.388 293.802C292.344 292.431 293.143 282.679 293.143 282.679C293.143 282.679 288.449 270.376 287.459 260.824C287.459 260.824 285.652 258.39 283.618 254.922C282.274 252.633 280.84 249.891 279.75 247.104" fill="#9D9D9D"/>
<path d="M278.47 243.036C278.17 241.756 278.007 240.512 278.007 239.331C278.007 239.331 288.93 230.142 302.931 230.197C319.638 230.251 329.853 235.509 333.939 242.809C340.413 254.359 341.321 295.273 341.321 295.273C341.321 295.273 299.408 301.738 293.388 293.802C292.344 292.431 293.143 282.679 293.143 282.679C293.143 282.679 288.449 270.376 287.459 260.824C287.459 260.824 285.652 258.39 283.618 254.922C282.274 252.633 280.84 249.891 279.75 247.104" stroke="#2F2F2F" stroke-width="0.953041" stroke-miterlimit="10" stroke-linecap="round" stroke-linejoin="round"/>
<g opacity="0.6">
<path d="M278.47 243.036C278.17 241.756 278.007 240.512 278.007 239.331C278.007 239.331 288.93 230.142 302.931 230.197C319.638 230.251 329.853 235.509 333.939 242.809C340.413 254.359 341.321 295.273 341.321 295.273C341.321 295.273 299.408 301.738 293.388 293.802C292.344 292.431 293.143 282.679 293.143 282.679C293.143 282.679 288.449 270.376 287.459 260.824C287.459 260.824 285.652 258.39 283.618 254.922C282.274 252.633 280.84 249.891 279.75 247.104" fill="white"/>
<path d="M278.47 243.036C278.17 241.756 278.007 240.512 278.007 239.331C278.007 239.331 288.93 230.142 302.931 230.197C319.638 230.251 329.853 235.509 333.939 242.809C340.413 254.359 341.321 295.273 341.321 295.273C341.321 295.273 299.408 301.738 293.388 293.802C292.344 292.431 293.143 282.679 293.143 282.679C293.143 282.679 288.449 270.376 287.459 260.824C287.459 260.824 285.652 258.39 283.618 254.922C282.274 252.633 280.84 249.891 279.75 247.104" stroke="#2F2F2F" stroke-width="0.953041" stroke-miterlimit="10" stroke-linecap="round" stroke-linejoin="round"/>
</g>
<path d="M294.526 252.871C294.526 252.871 300.928 277.704 299.938 283.162C299.448 285.867 300.873 288.673 300.873 288.673C300.873 288.673 297.95 291.551 299.938 295.374" stroke="#2F2F2F" stroke-width="0.953041" stroke-miterlimit="10" stroke-linecap="round" stroke-linejoin="round"/>
<path d="M289.974 256.102C289.974 256.102 284.562 232.894 298.273 230.197C311.984 227.5 314.844 233.92 314.036 238.278C312.956 244.08 301.569 258.309 301.569 258.309L294.532 252.879L289.974 256.102Z" fill="#9D9D9D" stroke="#2F2F2F" stroke-width="0.953041" stroke-miterlimit="10" stroke-linecap="round" stroke-linejoin="round"/>
<path opacity="0.4" d="M289.974 256.102C289.974 256.102 284.562 232.894 298.273 230.197C311.984 227.5 314.844 233.92 314.036 238.278C312.956 244.08 301.569 258.309 301.569 258.309L294.532 252.879L289.974 256.102Z" fill="white" stroke="#2F2F2F" stroke-width="0.953041" stroke-miterlimit="10" stroke-linecap="round" stroke-linejoin="round"/>
<path d="M324.225 274.216C324.225 274.216 327.876 280.354 342.812 279.782C342.812 279.782 338.708 275.106 332.606 273.453C326.495 271.792 324.225 274.216 324.225 274.216Z" fill="#9D9D9D" stroke="#2F2F2F" stroke-width="0.953041" stroke-miterlimit="10" stroke-linecap="round" stroke-linejoin="round"/>
<path d="M266.198 276.678C266.198 276.678 269.667 271.302 272.854 270.222C276.041 269.141 285.366 269.05 286.8 269.014C288.235 268.978 313.904 275.497 325.935 279.502L324.891 259.417L341.072 260.688C341.072 260.688 340.418 285.213 337.903 291.696C335.388 298.188 331.783 296.608 325.636 293.957C301.456 283.542 287.291 276.278 285.974 276.669C284.649 277.068 266.198 276.678 266.198 276.678Z" fill="white" stroke="#2F2F2F" stroke-width="0.953041" stroke-miterlimit="10" stroke-linecap="round" stroke-linejoin="round"/>
<path d="M320.843 247.74C320.417 249.492 320.262 251.272 320.444 252.842C321.161 259.126 324.212 274.217 324.212 274.217C324.212 274.217 339.303 276.369 342.799 279.783C342.799 279.783 345.287 259.78 340.22 249.664C335.163 239.549 329.914 238.405 329.914 238.405C326.6 237.588 323.595 240.675 321.878 244.643" fill="#D8D8D8"/>
<path d="M320.843 247.74C320.417 249.492 320.262 251.272 320.444 252.842C321.161 259.126 324.212 274.217 324.212 274.217C324.212 274.217 339.303 276.369 342.799 279.783C342.799 279.783 345.287 259.78 340.22 249.664C335.163 239.549 329.914 238.405 329.914 238.405C326.6 237.588 323.595 240.675 321.878 244.643" stroke="#2F2F2F" stroke-width="0.953041" stroke-miterlimit="10" stroke-linecap="round" stroke-linejoin="round"/>
<g opacity="0.4">
<g opacity="0.4">
<path d="M320.841 247.739C320.415 249.492 320.26 251.271 320.442 252.842C321.159 259.125 324.21 274.216 324.21 274.216C324.21 274.216 339.301 276.368 342.797 279.783C342.797 279.783 345.285 259.779 340.218 249.664C335.161 239.549 329.912 238.405 329.912 238.405C326.598 237.588 323.593 240.675 321.876 244.643" fill="white"/>
<path d="M320.841 247.739C320.415 249.492 320.26 251.271 320.442 252.842C321.159 259.125 324.21 274.216 324.21 274.216C324.21 274.216 339.301 276.368 342.797 279.783C342.797 279.783 345.285 259.779 340.218 249.664C335.161 239.549 329.912 238.405 329.912 238.405C326.598 237.588 323.593 240.675 321.876 244.643" stroke="#2F2F2F" stroke-width="0.953041" stroke-miterlimit="10" stroke-linecap="round" stroke-linejoin="round"/>
</g>
</g>
<path d="M276.531 255.512C276.531 255.512 279.491 258.191 284.249 259.425" stroke="#2F2F2F" stroke-width="0.953041" stroke-miterlimit="10" stroke-linecap="round" stroke-linejoin="round"/>
<path d="M324.225 255.512C324.225 255.512 329.71 265.809 336.556 268.088" stroke="#2F2F2F" stroke-width="0.953041" stroke-miterlimit="10" stroke-linecap="round" stroke-linejoin="round"/>
<path d="M294.522 251.869C294.522 251.869 293.396 249.191 293.596 245.123C293.632 244.387 293.705 243.616 293.841 242.807L292.306 240.374L290.336 237.241L292.615 228.116C292.615 228.116 307.125 230.913 308.233 234.962C309.331 239.03 294.522 251.869 294.522 251.869Z" fill="white"/>
<path opacity="0.2" d="M293.597 245.123C293.634 244.387 293.706 243.615 293.843 242.807L292.308 240.374C294.823 239.874 297.575 238.758 299.4 236.397C299.4 236.397 299.881 242.689 293.597 245.123Z" fill="black" fill-opacity="0.7"/>
<path d="M294.522 251.869C294.522 251.869 293.396 249.191 293.596 245.123C293.632 244.387 293.705 243.616 293.841 242.807L292.306 240.374L290.336 237.241L292.615 228.116C292.615 228.116 307.125 230.913 308.233 234.962C309.331 239.03 294.522 251.869 294.522 251.869Z" stroke="#2D2E35" stroke-width="0.953041" stroke-miterlimit="10" stroke-linecap="round" stroke-linejoin="round"/>
<path d="M303.639 228.925C308.133 217.085 305.164 197.027 283.363 200.877C270.533 203.147 269.035 218.601 273.321 225.457C277.606 232.312 273.057 232.539 279.477 237.633C282.074 239.694 284.18 243.19 287.286 243.408C290.981 243.671 295.712 240.166 299.244 236.398" fill="white"/>
<path d="M303.639 228.925C308.133 217.085 305.164 197.027 283.363 200.877C270.533 203.147 269.035 218.601 273.321 225.457C277.606 232.312 273.057 232.539 279.477 237.633C282.074 239.694 284.18 243.19 287.286 243.408C290.981 243.671 295.712 240.166 299.244 236.398" stroke="#2D2E35" stroke-width="0.953041" stroke-miterlimit="10" stroke-linecap="round" stroke-linejoin="round"/>
<path d="M282.165 225.466C282.165 225.466 285.379 222.551 289.192 223.759" stroke="#2D2E35" stroke-width="0.953041" stroke-miterlimit="10" stroke-linecap="round" stroke-linejoin="round"/>
<path d="M276.144 225.465C276.144 225.465 275.055 223.15 271.986 222.65" stroke="#2D2E35" stroke-width="0.953041" stroke-miterlimit="10" stroke-linecap="round" stroke-linejoin="round"/>
<path d="M278.269 229.678C278.269 229.678 277.806 232.039 277.207 234.418C276.616 236.725 281.02 235.499 280.82 235.126" fill="white"/>
<path d="M278.269 229.678C278.269 229.678 277.806 232.039 277.207 234.418C276.616 236.725 281.02 235.499 280.82 235.126" stroke="#2D2E35" stroke-width="0.953041" stroke-miterlimit="10" stroke-linecap="round" stroke-linejoin="round"/>
<path d="M283.105 238.141C283.105 238.141 285.92 237.469 287.891 235.009" stroke="#2D2E35" stroke-width="0.953041" stroke-miterlimit="10" stroke-linecap="round" stroke-linejoin="round"/>
<path d="M286.033 229.914C286.55 229.773 286.825 229.125 286.645 228.467C286.466 227.809 285.901 227.39 285.383 227.531C284.865 227.672 284.591 228.32 284.77 228.978C284.95 229.636 285.515 230.055 286.033 229.914Z" fill="#2D2E35"/>
<path d="M276.645 229.606C276.989 229.513 277.122 228.903 276.942 228.245C276.763 227.587 276.339 227.13 275.995 227.224C275.652 227.317 275.519 227.927 275.698 228.585C275.878 229.243 276.302 229.7 276.645 229.606Z" fill="#2D2E35"/>
<path d="M290.2 213.307C290.2 213.307 286.822 222.142 278.469 221.942C278.469 221.942 281.365 219.736 282.164 217.629C282.164 217.629 275.735 223.994 269.307 220.762C262.878 217.529 266.002 202.511 275.89 196.554C285.778 190.598 295.82 192.205 299.234 197.88C299.234 197.88 306.135 197.245 309.177 207.387C311.892 216.449 307.552 230.223 303.284 230.386C296.683 230.632 295.357 223.468 295.357 223.468C295.357 223.468 291.408 219.935 290.2 213.307Z" fill="#2F2F2F" stroke="#2D2E35" stroke-width="0.953041" stroke-miterlimit="10" stroke-linecap="round" stroke-linejoin="round"/>
<path d="M297.437 228.969C297.437 228.969 297.237 220.634 301.959 221.641C306.68 222.649 303.266 232.283 299.698 232.183" fill="white"/>
<path d="M297.437 228.969C297.437 228.969 297.237 220.634 301.959 221.641C306.68 222.649 303.266 232.283 299.698 232.183" stroke="#2D2E35" stroke-width="0.953041" stroke-miterlimit="10" stroke-linecap="round" stroke-linejoin="round"/>
<path d="M282.768 281.281H209.547C208.73 281.281 208.067 280.618 208.067 279.801V277.25C208.067 276.432 208.73 275.77 209.547 275.77H282.768C283.586 275.77 284.248 276.432 284.248 277.25V279.801C284.248 280.618 283.586 281.281 282.768 281.281Z" fill="#2F2F2F" stroke="#2D2E35" stroke-width="0.953041" stroke-miterlimit="10" stroke-linecap="round" stroke-linejoin="round"/>
<path d="M101.508 386.68H70.627L73.8594 414.91H98.2755L101.508 386.68Z" fill="#2F2F2F" stroke="#2F2F2F" stroke-width="0.624143" stroke-miterlimit="10" stroke-linecap="round" stroke-linejoin="round"/>
<path d="M105.169 367.031C105.169 367.031 91.6855 368.093 91.1226 378.045C91.1226 378.045 104.779 384.328 105.169 367.031Z" fill="#2F2F2F" stroke="#2F2F2F" stroke-width="0.624143" stroke-miterlimit="10" stroke-linecap="round" stroke-linejoin="round"/>
<path d="M78.4915 369.5C78.4915 369.5 70.9551 359.312 58.7788 364.533C58.7788 364.533 66.2153 376.855 78.4915 369.5Z" fill="#2F2F2F" stroke="#2F2F2F" stroke-width="0.624143" stroke-miterlimit="10" stroke-linecap="round" stroke-linejoin="round"/>
<path d="M59.8143 337.338C59.8143 337.338 57.6442 356.932 75.4864 351.539C75.4864 351.539 69.8204 337.129 59.8143 337.338Z" fill="#2F2F2F" stroke="#2F2F2F" stroke-width="0.624143" stroke-miterlimit="10" stroke-linecap="round" stroke-linejoin="round"/>
<path d="M81.712 326.424C81.712 326.424 67.6016 334.033 77.9801 345.574C77.9801 345.583 87.8682 337.329 81.712 326.424Z" fill="#2F2F2F" stroke="#2F2F2F" stroke-width="0.624143" stroke-miterlimit="10" stroke-linecap="round" stroke-linejoin="round"/>
<path d="M99.0742 343.94C99.0742 343.94 83.738 342.396 83.738 356.588C83.729 356.588 99.0742 357.196 99.0742 343.94Z" fill="#2F2F2F" stroke="#2F2F2F" stroke-width="0.624143" stroke-miterlimit="10" stroke-linecap="round" stroke-linejoin="round"/>
<path d="M84.6135 398.31C84.6135 398.31 91.605 383.637 84.8949 368.691C78.1848 353.745 75.9148 341.161 79.4197 332.28" stroke="#2F2F2F" stroke-width="0.624143" stroke-miterlimit="10" stroke-linecap="round" stroke-linejoin="round"/>
<path d="M94.0354 347.754C94.0354 347.754 84.8374 351.404 81.7139 360.874" stroke="#2F2F2F" stroke-width="0.624143" stroke-miterlimit="10" stroke-linecap="round" stroke-linejoin="round"/>
<path d="M64.6636 345.175C64.6636 345.175 69.9754 352.412 78.9827 351.631" stroke="#2F2F2F" stroke-width="0.624143" stroke-miterlimit="10" stroke-linecap="round" stroke-linejoin="round"/>
<path d="M64.6636 366.621C64.6636 366.621 79.3823 370.862 85.2298 369.473" stroke="#2F2F2F" stroke-width="0.624143" stroke-miterlimit="10" stroke-linecap="round" stroke-linejoin="round"/>
<path d="M100.775 371.505C100.775 371.505 94.2009 378.724 87.5815 378.615" stroke="#2F2F2F" stroke-width="0.624143" stroke-miterlimit="10" stroke-linecap="round" stroke-linejoin="round"/>
<path d="M69.3071 390.037H102.84V386.051H69.3071V390.037Z" fill="#2F2F2F" stroke="#2F2F2F" stroke-width="0.624143" stroke-miterlimit="10" stroke-linecap="round" stroke-linejoin="round"/>
<path d="M346.167 360.448C346.167 360.448 334.916 367.095 326.926 380.442C318.936 393.79 312.598 412.567 322.44 414.91L331.802 414.556L349.817 408.372L347.928 404.713C347.928 404.713 332.147 413.076 329.45 413.076C326.753 413.076 323.249 413.748 321.769 412.667C320.288 411.587 326.953 387.316 341.218 379.226C355.474 371.135 346.167 360.448 346.167 360.448Z" fill="#9D9D9D"/>
<path opacity="0.5" d="M346.167 360.448C346.167 360.448 334.916 367.095 326.926 380.442C318.936 393.79 312.598 412.567 322.44 414.91L331.802 414.556L349.817 408.372L347.928 404.713C347.928 404.713 332.147 413.076 329.45 413.076C326.753 413.076 323.249 413.748 321.769 412.667C320.288 411.587 326.953 387.316 341.218 379.226C355.474 371.135 346.167 360.448 346.167 360.448Z" fill="black" fill-opacity="0.7"/>
<path d="M346.167 360.448C346.167 360.448 334.916 367.095 326.926 380.442C318.936 393.79 312.598 412.567 322.44 414.91L331.802 414.556L349.817 408.372L347.928 404.713C347.928 404.713 332.147 413.076 329.45 413.076C326.753 413.076 323.249 413.748 321.769 412.667C320.288 411.587 326.953 387.316 341.218 379.226C355.474 371.135 346.167 360.448 346.167 360.448Z" stroke="#2D2E35" stroke-width="0.624143" stroke-miterlimit="10" stroke-linecap="round" stroke-linejoin="round"/>
<path d="M347.641 414.913C335.102 414.913 337.481 358.68 338.925 355.874C340.368 353.069 376.752 351.698 380.338 352.878C383.925 354.058 398.308 410.109 390.372 414.558L347.641 414.913Z" fill="#9D9D9D"/>
<path opacity="0.2" d="M347.641 414.913C335.102 414.913 337.481 358.68 338.925 355.874C340.368 353.069 376.752 351.698 380.338 352.878C383.925 354.058 398.308 410.109 390.372 414.558L347.641 414.913Z" fill="black" fill-opacity="0.7"/>
<path d="M347.641 414.913C335.102 414.913 337.481 358.68 338.925 355.874C340.368 353.069 376.752 351.698 380.338 352.878C383.925 354.058 398.308 410.109 390.372 414.558L347.641 414.913Z" stroke="#2D2E35" stroke-width="0.624143" stroke-miterlimit="10" stroke-linecap="round" stroke-linejoin="round"/>
<path d="M338.932 355.872C343.472 356.844 346.087 375.249 352.198 379.934C358.309 384.62 387.12 383.612 390.38 379.934C393.639 376.257 387.265 355.6 382.634 352.449C377.995 349.289 374.708 352.358 361.687 350.915C342.365 348.763 338.932 355.872 338.932 355.872Z" fill="#9D9D9D" stroke="#2D2E35" stroke-width="0.624143" stroke-miterlimit="10" stroke-linecap="round" stroke-linejoin="round"/>
<path d="M372 366.451L377.339 370.809C377.657 371.073 377.693 371.545 377.412 371.845L373.262 376.33C372.99 376.621 372.536 376.639 372.254 376.366L366.952 371.345C366.652 371.064 366.661 370.592 366.961 370.31L371.074 366.487C371.328 366.242 371.728 366.224 372 366.451Z" fill="#9D9D9D"/>
</svg>
