<svg width="24" height="24" viewBox="0 0 24 24" fill="none" xmlns="http://www.w3.org/2000/svg">
<path d="M21.7254 17.6266C21.6608 17.8089 21.5983 18.0047 21.5263 18.1971C20.9302 19.811 20.0254 21.2439 18.9275 22.557C18.7156 22.8126 18.4688 23.0441 18.2138 23.2587C17.7099 23.6852 17.13 23.9428 16.4593 23.9664C15.9555 23.9825 15.4718 23.891 15.0056 23.7013C14.6679 23.5634 14.3356 23.4094 13.9931 23.2849C12.8818 22.8813 11.7765 22.9344 10.6834 23.3663C10.2891 23.5224 9.9003 23.6946 9.49869 23.8298C9.03317 23.9859 8.55015 24.0491 8.05839 23.9563C7.6292 23.8762 7.25382 23.6764 6.90535 23.4188C6.47279 23.0986 6.10952 22.7084 5.7698 22.2953C4.16132 20.3337 3.0816 18.1157 2.56024 15.6313C2.33555 14.5631 2.22792 13.486 2.29385 12.3942C2.37121 11.0851 2.67528 9.83855 3.37491 8.7151C4.25281 7.30306 5.49129 6.37807 7.12062 5.99664C8.10077 5.76589 9.05402 5.86007 9.98843 6.21998C10.4802 6.40834 10.9733 6.59469 11.4671 6.77968C11.9218 6.95056 12.3746 6.95056 12.83 6.77632C13.3339 6.58392 13.8384 6.3922 14.3443 6.20451C14.863 6.01547 15.3904 5.86075 15.9407 5.81702C16.7641 5.75042 17.5673 5.85738 18.349 6.11907C19.457 6.48974 20.3584 7.14564 21.0392 8.10091C21.0574 8.12714 21.0776 8.15607 21.091 8.17693C19.3742 9.3737 18.3968 10.9546 18.5387 13.0952C18.682 15.2371 19.835 16.6862 21.7254 17.6266ZM12.0954 5.55197C12.602 5.56542 13.089 5.46788 13.5579 5.28153C15.6965 4.43256 16.8145 2.1702 16.7809 0.43996C16.7782 0.300706 16.7688 0.161453 16.7627 0C16.5428 0.0329633 16.3423 0.0484359 16.1499 0.0968719C14.5885 0.47965 13.387 1.35082 12.5972 2.76152C12.1351 3.58762 11.8781 4.46485 11.9568 5.42348C11.9622 5.52506 11.9992 5.55062 12.0954 5.55197Z" fill="white"/>
</svg>
