<svg width="245" height="31" viewBox="0 0 245 31" fill="none" xmlns="http://www.w3.org/2000/svg">
<path d="M18.4638 3.42613C18.4638 0.725598 15.7652 -0.127202 13.6348 0.0149312V0.583465C14.913 0.725598 15.9072 1.00986 15.9072 1.72053C15.9072 2.28906 15.6232 2.8576 14.487 2.8576C13.4928 2.8576 11.6464 2.28906 10.2261 1.86266C8.52174 1.29413 6.67536 0.725598 5.3971 0.725598C2.84058 0.725598 0.852174 2.4312 0.852174 4.70533C0.852174 6.6952 2.13043 7.548 2.84058 7.83226L3.12464 7.40587C2.69855 7.1216 2.41449 6.83733 2.41449 6.12667C2.41449 5.55813 2.98261 4.70533 4.11884 4.70533C4.82899 4.70533 5.3971 4.84747 6.24928 4.9896C7.10145 5.13173 7.95362 5.416 9.08986 5.70026C10.7942 6.2688 12.3565 6.6952 13.7768 6.83733V10.5328L11.9304 12.0963V12.5227L13.7768 14.0861V19.3451C12.7826 19.9136 11.7884 20.0557 10.6522 20.0557C8.8058 19.9136 6.95942 19.6293 5.68116 18.208L10.9362 15.6496V6.97947L4.26087 9.82213C4.97101 8.4008 5.96522 7.1216 7.38551 6.2688L7.10145 5.8424C3.4087 6.83733 0 10.1064 0 14.5125C0 19.6293 4.26087 23.3248 9.37391 23.3248C14.913 23.3248 18.1797 19.3451 18.1797 14.9389H17.6116C16.7594 16.5024 15.7652 18.0659 14.3449 18.7765V13.8019L16.3333 12.2384V12.0963L14.3449 10.5328V6.6952C16.3333 6.97947 18.4638 5.8424 18.4638 3.42613ZM6.95942 17.0709L5.25507 17.9237C4.26087 16.7867 3.83478 15.0811 3.83478 13.0912C3.83478 12.2384 3.83478 11.3856 4.11884 10.8171L7.10145 9.39573L6.95942 17.0709ZM33.0928 10.2485L31.9565 11.1013L28.5478 8.25867L24.8551 10.9592V0.725598H24.287L19.458 4.1368V4.5632C20.1681 4.84747 20.8783 4.9896 20.8783 6.12667V19.6293L18.8899 20.9085L19.3159 21.4771L20.4522 20.7664L23.5768 23.4669L27.2696 20.9085L26.8435 20.34L25.9913 21.0507L24.8551 19.9136V11.3856L26.1333 10.5328L28.2638 12.5227V19.6293C28.2638 24.3197 26.9855 25.3147 24.9971 26.0253V26.736C28.8319 26.8781 32.0986 25.4568 32.0986 19.3451V11.5277L33.3768 10.5328L33.0928 10.2485ZM45.4493 18.0659L42.1826 20.6243L38.6319 18.208V16.9288L45.0232 12.9491V12.8069L42.0406 8.25867L34.9391 11.9541V19.9136L33.5188 20.9085L33.9449 21.4771L35.3652 20.4821L39.7681 23.7512L45.8754 18.7765L45.4493 18.0659ZM38.6319 16.2181V10.6749L39.2 10.5328L41.7565 14.2283L38.6319 16.2181ZM70.5884 2.4312C70.5884 2.0048 70.4464 1.43626 70.3044 1.00986H69.8783C69.4522 2.14693 69.0261 2.57333 68.0319 2.57333C66.8957 2.57333 66.3275 1.86266 65.7594 1.29413H65.1913L61.4986 5.55813L61.9246 5.98453L63.0609 4.70533C63.487 4.9896 63.771 5.27387 64.3391 5.55813C64.7652 5.8424 65.4754 5.98453 66.0435 5.98453V15.7917L58.658 3.42613C58.0899 2.57333 57.2377 1.00986 55.2493 1.00986C52.9768 1.00986 51.2725 2.71546 51.5565 5.70026L52.1246 5.8424C52.2667 4.9896 52.6928 4.27893 53.4029 4.27893C54.113 4.27893 54.5391 4.70533 54.8232 5.27387V9.2536C52.5507 9.2536 51.1304 10.5328 51.1304 12.3805C51.1304 13.3755 51.6986 14.9389 53.2609 15.2232L53.4029 14.7968C53.1188 14.5125 52.9768 14.3704 52.9768 14.0861C52.9768 13.5176 53.687 13.0912 54.3971 13.0912H54.8232V18.0659C52.2667 18.0659 50.2783 19.4872 50.2783 22.0456C50.2783 24.604 52.4087 25.8832 54.6812 25.7411L54.8232 25.1725C53.4029 25.0304 52.8348 24.3197 52.8348 23.6091C52.8348 22.6141 53.5449 22.1877 54.3971 22.1877C55.3913 22.1877 56.1015 22.7563 56.8116 23.4669L60.6464 19.2029L60.2203 18.7765L59.2261 19.9136C58.0899 18.9187 56.9536 18.208 55.5333 18.0659V6.12667L65.7594 23.4669H66.8957V5.98453C68.742 6.12667 70.5884 4.84747 70.5884 2.4312ZM80.1044 18.0659L76.8377 20.6243L73.287 18.208V16.9288L79.6783 12.9491V12.8069L76.6957 8.25867L69.5942 11.9541V19.9136L68.1739 20.9085L68.6 21.4771L70.0203 20.4821L74.4232 23.7512L80.5304 18.7765L80.1044 18.0659ZM73.287 16.2181V10.6749L73.8551 10.5328L76.4116 14.2283L73.287 16.2181ZM102.119 9.82213L100.983 10.5328L98.2841 8.25867L95.4435 10.8171L96.7217 11.9541V20.7664L96.1536 21.0507L93.4551 19.4872V11.812L94.7333 10.9592L91.6087 8.25867L88.4841 10.8171L89.7623 11.9541V20.7664L89.3362 20.9085L86.4957 18.9187V11.9541C86.4957 10.2485 85.6435 9.68 84.6493 8.96933C83.6551 8.4008 83.371 7.83226 83.371 6.97947C83.371 5.98453 84.3652 5.70026 84.6493 5.70026L84.5073 5.13173C83.087 5.13173 80.6725 6.41093 80.6725 8.68507C80.6725 9.96427 81.2406 10.3907 81.9507 11.1013C82.6609 11.6699 83.229 12.3805 83.229 13.3755V20.1979L81.8087 21.3349L82.2348 21.9035L83.513 21.0507L87.2058 23.8933L90.4725 21.7613L94.0232 23.8933L100.841 19.6293V11.5277L102.545 10.2485L102.119 9.82213ZM126.122 3.284L124.986 4.1368L121.861 1.43626L117.742 4.84747V1.72053H117.032V21.9035C116.606 21.9035 115.896 21.6192 115.043 21.4771V4.5632C115.043 3.284 114.049 1.5784 111.777 1.5784C109.22 1.5784 107.658 3.56826 107.658 5.27387H108.368C108.51 4.42107 109.078 3.85253 109.646 3.85253C110.499 3.85253 110.925 4.27893 110.925 5.98453V10.6749C108.794 10.8171 107.232 12.0963 107.232 13.944C107.232 15.2232 107.8 16.3603 109.22 16.6445L109.362 16.076C108.794 15.7917 108.652 15.5075 108.652 15.2232C108.652 14.5125 109.362 14.2283 110.215 14.2283H110.783V21.9035C108.936 22.6141 108.084 23.8933 108.084 25.5989C108.084 27.7309 109.788 29.2944 112.345 29.2944C114.049 29.2944 115.612 29.0101 117.174 28.5837C118.452 28.2995 120.441 28.0152 121.151 28.0152C122.145 28.0152 122.571 28.4416 122.571 29.1523C122.571 30.0051 122.145 30.2893 121.577 30.4315L121.719 31C123.849 30.5736 125.128 29.2944 125.128 27.3045C125.128 25.3147 123.281 24.3197 121.151 24.3197C120.015 24.3197 117.6 24.604 116.038 25.0304C114.333 25.4568 112.487 25.5989 112.061 25.5989C111.067 25.5989 110.072 25.0304 110.072 23.8933C110.072 22.7563 111.209 21.9035 113.339 21.9035C114.617 21.9035 115.754 22.1877 117.174 22.472C118.594 22.7563 119.872 23.1827 121.293 23.1827C123.139 23.1827 124.986 22.472 124.986 19.7715V4.84747L126.264 3.7104L126.122 3.284ZM120.867 10.3907C120.441 10.8171 120.015 11.1013 119.304 11.1013C118.452 11.1013 118.026 10.8171 117.742 10.3907V5.416L119.02 4.42106L120.867 5.8424V10.3907ZM120.867 14.2283C120.441 13.944 120.157 13.6597 119.304 13.6597C118.452 13.6597 118.026 13.944 117.742 14.2283V11.2435C117.884 11.5277 118.452 11.812 119.304 11.812C120.015 11.812 120.583 11.5277 120.867 11.2435V14.2283ZM120.867 19.6293C120.867 20.7664 120.157 21.9035 118.878 21.9035C118.594 21.9035 117.884 21.9035 117.6 21.7613V14.7968C117.884 14.5125 118.452 14.2283 119.162 14.2283C119.872 14.2283 120.441 14.5125 120.725 14.7968V19.6293H120.867ZM138.762 11.3856L134.501 8.11653L127.826 11.9541V19.7715L126.406 20.7664L126.832 21.3349L128.11 20.4821L132.229 23.4669L138.762 19.4872V11.3856ZM131.661 18.9187V10.3907L135.07 12.6648V21.1928L131.661 18.9187ZM151.261 8.25867C150.835 8.68507 150.551 8.96933 149.983 8.96933C149.415 8.96933 148.704 8.68507 148.562 8.25867H148.278L146.148 10.6749L143.875 8.25867L139.899 11.1013L140.325 11.6699L141.461 10.9592L142.597 12.0963V19.6293L140.609 20.9085L141.035 21.4771L142.171 20.7664L145.438 23.4669L149.841 20.4821L149.415 19.9136L148.136 20.7664L146.574 19.4872V11.1013C147.568 12.0963 148.42 12.3805 149.272 12.3805C150.977 12.3805 151.971 10.2485 152.113 8.25867H151.261ZM167.31 20.0557L166.032 20.9085L160.209 12.2384L160.493 11.6699C161.061 12.0963 161.771 12.6648 163.191 12.6648C164.754 12.6648 166.316 10.9592 166.6 8.4008H166.032C165.464 9.11147 165.038 9.53787 164.186 9.53787C163.617 9.53787 162.765 9.11147 162.197 8.4008H161.913L157.51 15.2232L163.333 23.7512L167.878 20.7664L167.31 20.0557ZM159.072 20.4821L158.078 21.1928L156.942 20.0557V0.725598H156.374L151.545 4.1368V4.5632C152.255 4.84747 152.965 4.9896 152.965 6.12667V19.6293L150.977 20.9085L151.403 21.4771L152.539 20.7664L155.664 23.4669L159.357 20.9085L159.072 20.4821ZM190.035 3.42613C190.035 0.725598 187.336 -0.127202 185.206 0.0149312V0.583465C186.484 0.725598 187.478 1.00986 187.478 1.72053C187.478 2.28906 187.194 2.8576 186.058 2.8576C185.064 2.8576 183.217 2.28906 181.797 1.86266C180.235 1.29413 178.388 0.725598 177.11 0.725598C174.554 0.725598 172.565 2.28907 172.565 4.5632C172.565 6.55307 173.844 7.40587 174.554 7.69013L174.838 7.26373C174.412 6.97947 174.128 6.6952 174.128 5.98453C174.128 5.416 174.696 4.5632 175.832 4.5632C176.542 4.5632 177.11 4.70533 177.962 4.84747C178.815 4.9896 179.667 5.27387 180.803 5.55813C182.507 6.12667 184.07 6.55307 185.49 6.6952V10.3907L183.644 11.9541V12.3805L185.49 13.944V19.2029C184.496 19.7715 183.501 19.9136 182.365 19.9136C180.519 19.9136 178.672 19.4872 177.252 18.208L182.507 15.6496V6.97947L175.974 9.82213C176.684 8.4008 177.678 7.1216 179.099 6.2688L178.815 5.8424C175.122 6.83733 171.713 10.1064 171.713 14.5125C171.713 19.6293 175.974 23.3248 181.087 23.3248C186.626 23.3248 189.893 19.3451 189.893 14.9389H189.325C188.472 16.5024 187.478 18.0659 186.058 18.7765V13.8019L188.046 12.2384V12.0963L186.058 10.5328V6.6952C188.046 6.97947 190.035 5.8424 190.035 3.42613ZM178.53 17.0709L176.826 17.9237C175.832 16.7867 175.406 15.0811 175.406 13.0912C175.406 12.2384 175.406 11.3856 175.69 10.8171L178.815 9.53787L178.53 17.0709ZM194.722 1.86266H194.58L191.881 4.27893V4.5632L194.296 7.1216H194.58L197.278 4.70533V4.42106L194.722 1.86266ZM198.983 20.0557L197.704 20.9085L196.71 19.9136V10.9592L194.438 8.25867L190.319 10.9592L190.745 11.5277L191.881 10.8171L192.875 12.0963V19.9136L191.029 21.1928L191.455 21.7613L192.449 21.0507L195.29 23.6091L199.551 20.6243L198.983 20.0557ZM221.423 20.0557L220.287 20.9085L219.151 19.7715V11.9541L220.429 10.9592L220.145 10.3907L218.867 11.2435L215.6 8.4008L211.907 11.1013L208.783 8.4008L204.948 10.9592L202.675 8.4008L198.557 11.2435L198.983 11.812L200.119 11.1013L201.255 12.3805V20.1979L200.119 21.1928L203.528 23.8933L206.368 21.3349L205.09 20.1979V11.812L206.368 11.1013L208.357 12.9491V20.34L207.22 21.3349L210.203 23.8933L213.328 21.3349L212.049 20.1979V11.9541L213.186 11.2435L215.316 13.0912V20.34L214.322 21.3349L217.304 24.0355L221.565 21.0507L221.423 20.0557ZM232.928 18.0659L229.661 20.6243L226.11 18.208V16.9288L232.501 12.9491V12.8069L229.519 8.25867L222.417 11.9541V20.1979L227.104 23.6091L233.212 18.6344L232.928 18.0659ZM226.252 16.2181V10.6749L226.82 10.5328L229.377 14.2283L226.252 16.2181ZM245 15.7917L242.301 13.8019C243.864 12.3805 244.716 10.2485 244.716 9.11147V8.25867H244.29C244.006 8.96933 243.438 9.53787 242.586 9.53787C241.591 9.53787 241.023 8.96933 240.455 8.25867L234.348 11.812V16.076L236.62 17.9237C234.49 19.7715 233.78 20.9085 233.78 22.1877C233.78 23.4669 234.632 24.4619 235.626 24.8883L235.91 24.4619C235.626 24.1776 235.342 24.0355 235.342 23.6091C235.342 23.1827 235.768 22.472 236.62 22.472C237.899 22.472 238.609 23.3248 239.035 23.7512L244.858 20.1979V15.7917H245ZM243.012 11.9541C242.159 13.3755 240.171 14.7968 239.319 15.3653L238.041 14.0861V9.96426C238.609 11.3856 239.745 12.3805 241.449 12.3805C241.875 12.3805 242.586 12.2384 243.012 11.9541ZM241.165 21.7613C240.455 20.1979 239.177 19.2029 237.472 19.2029C236.904 19.2029 236.194 19.4872 235.484 19.9136C236.052 18.9187 237.899 17.3552 239.461 16.3603L241.023 17.6395L241.165 21.7613Z" fill="#2F2F2F"/>
</svg>
