<svg width="131" height="26" viewBox="0 0 131 26" fill="none" xmlns="http://www.w3.org/2000/svg">
<path d="M45.5225 18.8387V21.8065H33.0775V18.8387H37.5315V6.96774H33.0775V4H45.5225V6.96774H41.0685V18.8387H45.5225Z" fill="#2F2F2F"/>
<path d="M24.366 4.0401H20.96L18.471 18.2456L15.589 5.08271C15.458 4.17043 15.065 4.0401 14.279 4.0401H12.445C11.659 4.0401 11.266 4.30075 11.135 5.08271L8.253 18.2456L5.764 4.0401H2.096L5.633 21.1128C5.764 21.8947 6.026 22.0251 6.943 22.0251H9.432C10.218 22.0251 10.48 21.8947 10.742 21.1128L13.493 8.73183L16.244 21.1128C16.375 21.8947 16.637 22.0251 17.554 22.0251H19.912C20.698 22.0251 21.091 21.8947 21.222 21.1128L24.366 4.0401ZM26.2 26H0V0H26.2V26Z" fill="#2F2F2F"/>
<path d="M69.3645 17.1613C69.3645 19.0968 69.4955 20.5161 69.7575 21.6774H73.2945C73.1635 20.7742 73.0325 19.0968 73.0325 16.9032C72.9015 14.3226 72.1155 13.9355 70.2815 13.5484C72.3775 13.1613 73.2945 12.2581 73.2945 9.03226C73.2945 6.45161 72.9015 5.41936 72.1155 4.77419C71.5915 4.25807 70.6745 4 69.2335 4H58.2295V21.8065H61.8975V14.8387H67.0065C68.0545 14.8387 68.4475 14.9677 68.8405 15.2258C69.2335 15.4839 69.3645 15.871 69.3645 17.1613ZM61.8975 12V7.09678H67.7925C68.5785 7.09678 68.8405 7.22581 68.9715 7.35484C69.2335 7.6129 69.4955 8 69.4955 9.54839C69.4955 11.0968 69.2335 11.6129 68.9715 11.871C68.8405 12 68.5785 12.129 67.7925 12.129L61.8975 12ZM78.5345 25.7419H52.3345V0H78.469V25.7419H78.5345Z" fill="#2F2F2F"/>
<path d="M110.461 4V21.8065H119.414C121.916 21.8065 123.364 21.4194 124.417 20.5161C125.734 19.3548 126.392 17.2903 126.392 12.9032C126.392 8.51613 125.734 6.45161 124.417 5.29032C123.364 4.3871 121.916 4 119.414 4H110.461ZM122.706 12.9032C122.706 16.7742 122.442 17.6774 121.652 18.1936C121.126 18.5806 120.467 18.7097 119.151 18.7097H114.148V6.96774H119.151C120.467 6.96774 121.126 6.96774 121.652 7.48387C122.442 8.12903 122.706 9.03226 122.706 12.9032ZM131 25.7419H104.734V0H131V25.7419Z" fill="#2F2F2F"/>
<path d="M83.3815 6.96774V4H98.8395V9.67742H95.5645V6.96774H89.2765V11.2258H94.2545V14.0645H89.2765V18.8387H95.6955V15.7419H98.9705V21.8065H83.3815V18.8387H85.8705V6.96774H83.3815Z" fill="#2F2F2F"/>
</svg>
