<svg width="24" height="26" viewBox="0 0 24 26" fill="none" xmlns="http://www.w3.org/2000/svg">
<g clip-path="url(#clip0)">
<path d="M5.23861 1.307C4.29967 0.768446 3.19723 0.780898 2.26428 1.31478L13.1987 11.7824L16.872 7.97044L5.23861 1.307Z" fill="#F5F5F5"/>
<path d="M1.17089 2.38525C0.903907 2.8382 0.750916 3.35652 0.750916 3.90597V22.8114C0.750916 23.3437 0.890408 23.8512 1.14239 24.2948L12.1383 12.884L1.17089 2.38525Z" fill="#F5F5F5"/>
<path d="M21.7423 10.759L18.2385 8.75269L14.3013 12.837L19.1265 17.4552L21.7438 15.9563C22.6858 15.4146 23.2498 14.4433 23.2498 13.3569C23.2483 12.2704 22.6858 11.2991 21.7423 10.759Z" fill="#F5F5F5"/>
<path d="M13.2403 13.939L2.21442 25.3809C2.69289 25.6642 3.21786 25.8136 3.74583 25.8136C4.2558 25.8136 4.76877 25.6798 5.23825 25.4105L17.743 18.249L13.2403 13.939Z" fill="#F5F5F5"/>
</g>
<defs>
<clipPath id="clip0">
<rect width="24" height="24.9057" fill="white" transform="translate(0 0.908447)"/>
</clipPath>
</defs>
</svg>
