<svg width="590" height="590" viewBox="0 0 590 590" fill="none" xmlns="http://www.w3.org/2000/svg">
<path d="M25.6054 288.982C25.6054 288.982 18.1714 340.43 48.9694 397.778C75.7554 447.692 124.253 482.62 181.837 497.37C219.833 507.164 259.009 506.692 297.595 504.214C347.273 501.146 402.379 503.978 448.163 485.334C519.435 456.188 563.095 379.96 566.399 309.278C568.523 263.612 550.941 211.102 504.213 187.03C486.867 178.062 467.633 171.454 452.529 159.3C434.357 144.668 426.451 123.428 412.881 105.846C396.125 84.0163 372.171 71.5083 346.093 61.4783C261.487 28.7923 180.657 43.4243 114.813 86.7303C48.8514 129.682 21.7114 263.73 25.6054 288.982Z" fill="#E8E8E8"/>
<path d="M102.071 362.614H92.2765V373.588H102.071V362.614Z" fill="#18191E" stroke="#18191E" stroke-miterlimit="10"/>
<path d="M105.847 358.366H87.2026V365.093H105.847V358.366Z" fill="#18191E" stroke="#18191E" stroke-miterlimit="10"/>
<path d="M117.647 370.167H75.7568V482.03H117.647V370.167Z" fill="white" stroke="#18191E" stroke-miterlimit="10"/>
<path d="M92.0404 414.298C98.036 414.298 102.896 409.438 102.896 403.442C102.896 397.447 98.036 392.586 92.0404 392.586C86.0448 392.586 81.1844 397.447 81.1844 403.442C81.1844 409.438 86.0448 414.298 92.0404 414.298Z" fill="#18191E" stroke="#263238" stroke-miterlimit="10"/>
<path d="M180.068 510.468L160.834 486.396H105.374L86.2582 510.468H180.068Z" fill="white" stroke="#18191E" stroke-miterlimit="10"/>
<path d="M179.596 486.632H103.604C99.9459 486.632 96.8779 483.682 96.8779 479.906V479.434H186.204V479.906C186.322 483.682 183.254 486.632 179.596 486.632Z" fill="white" stroke="#18191E" stroke-miterlimit="10"/>
<path d="M150.243 332.182L133.437 343.135L135.627 346.496L152.434 335.544L150.243 332.182Z" fill="white" stroke="#263238" stroke-miterlimit="10"/>
<path d="M159.794 320.549L144.075 330.793L150.647 340.877L166.365 330.633L159.794 320.549Z" fill="#2D2E35" stroke="#263238" stroke-miterlimit="10"/>
<path d="M98.5308 305.384H94.7548V317.656H98.5308V305.384Z" fill="#18191E" stroke="#18191E" stroke-miterlimit="10"/>
<path d="M100.3 316.83H92.6302V341.02H100.3V316.83Z" fill="white" stroke="#18191E" stroke-miterlimit="10"/>
<path d="M105.375 338.424H87.5568V352.348H105.375V338.424Z" fill="white" stroke="#18191E" stroke-miterlimit="10"/>
<path d="M134.166 331.699L113.87 348.927L68.9124 352.821L69.9744 364.385L124.136 359.665L142.544 345.977L134.166 331.699Z" fill="white" stroke="#18191E" stroke-miterlimit="10"/>
<path d="M466.336 197.651L464.33 218.891C464.33 218.891 452.648 218.065 449.226 211.221C445.804 204.377 447.338 195.409 447.338 195.409L448.872 187.267C448.872 187.267 454.89 184.081 461.144 187.857C467.28 191.633 466.336 197.651 466.336 197.651Z" fill="#B5B5B5" stroke="#263238" stroke-miterlimit="10"/>
<path d="M383.028 265.736L425.98 255.234L447.22 195.29C447.22 195.29 452.294 204.73 455.834 208.978C459.374 213.226 466.336 217.238 466.336 217.238C466.336 217.238 459.138 256.532 456.542 269.158C454.064 281.784 453.71 283.908 450.406 286.858C447.102 289.69 408.162 314.234 408.162 314.234C408.162 314.234 421.142 338.424 422.558 355.416C423.974 372.408 425.036 392.232 425.036 392.232C425.036 392.232 393.294 341.728 381.73 326.86C370.166 312.11 365.446 289.69 368.042 278.126C370.756 266.798 383.028 265.736 383.028 265.736Z" fill="white" stroke="#263238" stroke-miterlimit="10"/>
<path d="M398.25 277.3L408.28 314.47L415.596 270.456" stroke="#263238" stroke-miterlimit="10"/>
<path d="M427.16 256.296C427.16 256.296 438.37 260.308 440.14 273.288" stroke="#263238" stroke-miterlimit="10"/>
<path d="M435.066 256.296C435.066 256.296 448.754 259.128 449.462 273.642" stroke="#263238" stroke-miterlimit="10"/>
<path d="M384.208 279.778L402.262 317.302L398.25 324.146L407.336 331.462L409.814 345.504" stroke="#263238" stroke-miterlimit="10"/>
<path d="M319.662 233.404C319.662 233.404 298.422 240.248 291.46 253.582C284.616 266.916 301.254 291.106 303.732 300.192C306.21 309.16 302.67 312.464 299.366 309.986C296.062 307.508 292.522 312.464 296.062 318.246C299.72 324.028 319.544 319.662 326.034 316.476C332.524 313.172 331.108 291.578 327.45 277.536C323.792 263.494 319.544 247.564 321.668 240.72C324.028 233.758 319.662 233.404 319.662 233.404Z" fill="#05080D" stroke="#263238" stroke-miterlimit="10"/>
<path d="M386.922 204.022C386.922 204.022 397.424 216.648 398.132 221.722C398.84 226.796 398.486 229.628 398.486 229.628C398.486 229.628 403.56 235.41 404.622 236.118C405.684 236.826 409.342 238.95 407.1 241.9C404.976 244.732 401.318 244.732 401.318 244.732C401.318 244.732 401.672 255.942 400.61 261.016C399.548 266.09 397.306 267.86 393.412 268.214C389.4 268.568 384.444 268.568 384.444 268.568L380.432 288.746L385.506 315.06L347.982 274.232C347.982 274.232 351.64 259.482 351.64 256.532C351.64 253.7 346.212 248.272 350.932 233.05C355.534 218.064 386.922 204.022 386.922 204.022Z" fill="#B5B5B5" stroke="#263238" stroke-miterlimit="10"/>
<path d="M350.461 242.608C350.461 242.608 356.951 244.732 358.721 240.13C360.491 235.41 357.659 229.628 366.627 224.554C375.595 219.48 391.525 215.94 394.829 207.562C398.133 199.302 394.475 190.57 389.401 189.508C384.327 188.446 378.191 191.278 368.515 191.632C358.721 191.986 330.165 191.868 321.197 205.556C312.229 219.244 320.843 243.906 323.439 249.334C325.917 254.762 325.917 268.804 336.419 269.512C346.921 270.22 354.119 262.314 354.827 256.532C355.535 250.986 350.461 242.608 350.461 242.608Z" fill="#05080D" stroke="#263238" stroke-miterlimit="10"/>
<g opacity="0.5">
<path opacity="0.5" d="M347.982 238.361L399.902 220.661C399.902 220.661 409.342 226.443 402.734 233.995L376.066 242.609L348.218 241.901L347.982 238.361Z" fill="white"/>
</g>
<path d="M347.982 238.361L399.902 220.661C399.902 220.661 409.342 226.443 402.734 233.995L376.066 242.609L348.218 241.901L347.982 238.361Z" stroke="#263238" stroke-miterlimit="10"/>
<path d="M347.982 238.361L399.902 220.661" stroke="#18191E" stroke-width="2" stroke-miterlimit="10" stroke-linecap="round"/>
<path d="M370.756 231.871L376.184 242.609" stroke="#263238" stroke-miterlimit="10"/>
<path d="M357.422 245.204C356.36 245.204 346.92 232.578 342.318 236.236C337.598 239.894 341.964 252.874 347.746 255.352C353.528 257.83 358.248 251.694 358.248 251.694" fill="#B5B5B5"/>
<path d="M357.422 245.204C356.36 245.204 346.92 232.578 342.318 236.236C337.598 239.894 341.964 252.874 347.746 255.352C353.528 257.83 358.248 251.694 358.248 251.694" stroke="#263238" stroke-miterlimit="10"/>
<path d="M390.935 234.112C391.717 234.112 392.351 232.633 392.351 230.808C392.351 228.984 391.717 227.504 390.935 227.504C390.153 227.504 389.519 228.984 389.519 230.808C389.519 232.633 390.153 234.112 390.935 234.112Z" fill="#263238"/>
<path d="M346.92 270.102C346.92 270.102 365.682 285.678 376.184 302.552C386.686 319.544 413.354 349.87 417.72 359.9C422.086 370.048 425.626 380.432 425.626 389.164C425.626 397.778 426.334 463.504 426.334 464.92C426.334 466.336 426.334 510.35 426.334 510.35H315.532C315.532 510.35 322.376 415.478 322.376 395.182C322.376 375.004 313.762 356.596 320.252 327.686C326.742 299.012 337.48 282.374 346.92 270.102Z" fill="white" stroke="#263238" stroke-miterlimit="10"/>
<path d="M339.722 280.604L379.724 335.828L389.872 332.524L389.164 344.796L414.416 358.13" stroke="#263238" stroke-miterlimit="10"/>
<path d="M415.36 463.15H357.068V472.472H410.64" stroke="#263238" stroke-miterlimit="10"/>
<path d="M477.429 238.951H477.075C475.659 238.951 474.597 237.771 474.597 236.473V220.661H480.025V236.473C480.025 237.889 478.845 238.951 477.429 238.951Z" fill="white" stroke="#263238" stroke-miterlimit="10"/>
<path d="M481.323 217.356H473.299V222.784H481.323V217.356Z" fill="white" stroke="#263238" stroke-miterlimit="10"/>
<path d="M504.922 188.21C504.922 188.21 507.754 192.694 507.4 195.29C507.046 197.886 503.152 209.45 501.972 209.686C500.792 209.922 500.556 208.506 500.91 204.376C501.264 200.364 501.972 197.65 501.972 196.47C501.854 195.29 502.68 185.732 504.922 188.21Z" fill="#E8E8E8" stroke="#263238" stroke-miterlimit="10" stroke-linecap="round" stroke-linejoin="round"/>
<path d="M450.524 182.782C450.524 182.782 445.922 190.806 449.344 195.526C452.766 200.128 460.2 200.6 460.2 200.6C460.2 200.6 461.381 209.686 463.269 211.102C465.039 212.518 469.522 218.772 470.112 221.014C470.702 223.256 474.951 220.424 474.951 218.536C474.951 216.766 471.883 209.45 471.057 207.444C470.231 205.438 472.119 200.01 472.709 198.122C473.299 196.352 473.889 195.526 473.889 195.526C473.889 195.526 479.789 201.19 480.379 204.376C480.969 207.562 479.317 219.48 480.969 220.896C482.621 222.312 486.868 221.958 487.694 219.48C488.52 217.002 489.937 202.96 489.937 200.482C489.937 198.004 486.042 189.744 486.042 189.744C486.042 189.744 492.296 195.998 492.532 198.24C492.768 200.482 490.88 214.642 491.942 214.996C493.004 215.35 494.538 216.058 495.954 214.76C497.37 213.58 498.551 210.276 498.551 210.276C498.551 210.276 502.562 200.836 504.214 196.352C505.866 191.868 507.282 186.912 503.624 185.024C499.966 183.254 497.135 181.602 486.869 177.59C476.603 173.578 461.971 170.51 456.779 174.404C451.587 178.298 450.524 182.782 450.524 182.782Z" fill="#E8E8E8" stroke="#263238" stroke-miterlimit="10" stroke-linecap="round" stroke-linejoin="round"/>
<path d="M460.2 200.482L459.492 185.968" stroke="#263238" stroke-miterlimit="10"/>
<path d="M460.082 195.29C460.082 195.29 452.058 195.054 451.232 184.788" stroke="#263238" stroke-miterlimit="10"/>
<path d="M500.911 204.377C500.911 204.377 503.507 196.707 501.265 193.049C499.023 189.391 490.527 183.727 490.527 183.727" stroke="#263238" stroke-miterlimit="10"/>
<path d="M444.152 324.737C444.86 324.265 457.486 310.931 457.722 309.987C457.958 309.043 458.194 296.181 459.61 293.349C461.026 290.517 465.746 282.139 465.982 279.543C466.218 276.947 466.218 268.097 465.982 265.029C465.746 261.961 468.814 261.725 470.938 264.557C473.062 267.389 473.534 271.401 473.534 274.941C473.534 278.481 473.77 281.313 474.242 282.021C474.714 282.729 478.726 286.269 480.614 286.741C482.502 287.213 493.948 281.549 497.252 280.369C500.556 279.189 502.68 269.513 503.152 268.451C503.624 267.507 503.86 260.427 504.096 258.775C504.332 257.123 507.4 254.999 508.58 259.011C509.76 263.023 509.288 272.581 509.052 275.177C508.816 277.773 509.052 283.201 507.872 284.617C506.692 286.033 499.14 292.641 498.432 293.585C497.724 294.529 494.892 303.733 493.948 305.267C493.004 306.683 484.98 309.751 479.434 313.055C474.006 316.359 468.224 321.551 468.224 321.551C468.224 321.551 469.876 323.439 468.224 325.091C466.572 326.743 463.504 327.923 463.504 327.923L458.548 339.841L444.152 324.737Z" fill="#B5B5B5" stroke="#263238" stroke-miterlimit="10"/>
<path d="M493.948 305.502C494.892 304.086 497.724 294.882 498.432 293.82C499.14 292.876 506.692 286.268 507.872 284.852C509.052 283.436 508.816 278.008 509.052 275.412C509.288 272.816 509.76 263.258 508.58 259.246C507.4 255.234 504.332 257.358 504.096 259.01C503.86 260.662 503.624 267.742 503.152 268.686C502.68 269.63 500.556 279.306 497.252 280.604C493.948 281.784 482.502 287.448 480.614 286.976C478.726 286.504 474.714 282.964 474.242 282.256C473.77 281.548 473.534 278.716 473.534 275.176C473.534 271.636 473.062 267.624 470.938 264.792C468.814 261.96 465.746 262.196 465.982 265.264C466.218 268.332 466.218 277.182 465.982 279.778C465.746 282.374 461.026 290.634 459.61 293.584C458.194 296.416 457.958 309.278 457.722 310.222C457.604 310.694 454.182 314.47 450.76 318.128L463.386 328.984L463.622 328.512C463.622 328.512 466.69 327.332 468.342 325.68C469.994 324.028 468.342 322.14 468.342 322.14C468.342 322.14 474.006 316.948 479.552 313.644C484.98 310.104 493.004 307.036 493.948 305.502Z" fill="#E8E8E8" stroke="#263238" stroke-miterlimit="10" stroke-linecap="round" stroke-linejoin="round"/>
<path d="M498.432 293.939L490.408 299.839" stroke="#263238" stroke-miterlimit="10"/>
<path d="M338.66 307.627C338.66 307.627 350.932 305.503 358.13 311.285C365.328 317.067 367.924 327.923 368.278 328.985C368.632 330.047 402.616 361.081 402.616 361.081L445.214 321.787L466.1 342.319C466.1 342.319 439.432 376.303 425.626 389.283C411.82 402.263 401.79 408.281 399.194 409.461C396.716 410.523 394.12 409.461 391.288 407.691C388.456 405.921 328.512 345.623 328.512 345.623" fill="white"/>
<path d="M338.66 307.627C338.66 307.627 350.932 305.503 358.13 311.285C365.328 317.067 367.924 327.923 368.278 328.985C368.632 330.047 402.616 361.081 402.616 361.081L445.214 321.787L466.1 342.319C466.1 342.319 439.432 376.303 425.626 389.283C411.82 402.263 401.79 408.281 399.194 409.461C396.716 410.523 394.12 409.461 391.288 407.691C388.456 405.921 328.512 345.623 328.512 345.623" stroke="#263238" stroke-miterlimit="10"/>
<path d="M337.834 332.878C337.834 332.878 349.044 322.376 354.826 322.022C360.608 321.668 364.62 326.388 364.62 326.388" stroke="#263238" stroke-miterlimit="10"/>
<path d="M332.052 324.265C332.052 324.265 345.74 315.297 353.764 319.545" stroke="#263238" stroke-miterlimit="10"/>
<path d="M402.498 361.081C402.498 361.081 393.058 380.905 394.592 390.345" stroke="#263238" stroke-miterlimit="10"/>
<path d="M400.729 362.143C400.729 362.143 390.935 368.279 387.395 379.843" stroke="#263238" stroke-miterlimit="10"/>
<path d="M490.526 264.321H490.172C488.756 264.321 487.694 263.141 487.694 261.843V246.031H493.122V261.843C493.004 263.259 491.942 264.321 490.526 264.321Z" fill="white" stroke="#263238" stroke-miterlimit="10"/>
<path d="M494.302 242.726H486.278V248.154H494.302V242.726Z" fill="white" stroke="#263238" stroke-miterlimit="10"/>
<path d="M500.674 264.321H500.32C498.904 264.321 497.842 263.141 497.842 261.843V246.031H503.27V261.843C503.27 263.259 502.09 264.321 500.674 264.321Z" fill="white" stroke="#263238" stroke-miterlimit="10"/>
<path d="M504.568 242.726H496.544V248.154H504.568V242.726Z" fill="white" stroke="#263238" stroke-miterlimit="10"/>
<path d="M506.81 254.291H472.118V272.109H506.81V254.291Z" fill="#18191E" stroke="#2D2E35" stroke-miterlimit="10"/>
<path d="M156.467 295.59C156.467 295.59 155.995 309.278 158.945 314.706C161.895 320.134 166.851 322.14 167.205 326.742C167.677 331.344 165.553 337.48 168.503 339.132C171.453 340.784 192.103 361.552 198.711 361.08C205.319 360.608 212.399 351.168 212.399 351.168L227.267 360.726L247.209 319.662L233.993 307.626C233.993 307.626 228.565 275.294 221.131 266.208C213.697 257.122 185.849 254.644 171.807 261.252C157.765 267.86 152.691 282.846 149.387 285.678C146.083 288.628 139.003 291.46 142.779 296.888C146.437 302.198 156.467 295.59 156.467 295.59Z" fill="white" stroke="#263238" stroke-miterlimit="10"/>
<path d="M230.217 315.886C231.751 314.706 233.403 311.52 234.701 308.216L233.993 307.508C233.993 307.508 228.565 275.176 221.131 266.09C213.697 257.004 185.849 254.526 171.807 261.134C157.765 267.742 152.691 282.728 149.387 285.56C146.083 288.51 139.003 291.342 142.779 296.77C146.201 301.844 155.169 296.416 156.349 295.59L156.467 295.472C156.467 295.472 163.075 293.348 167.677 290.87C172.279 288.392 177.235 284.262 177.235 284.262C177.235 284.262 168.503 298.776 171.807 303.378C175.111 307.98 185.023 305.856 185.023 305.856C185.023 305.856 191.631 314.588 195.761 312.464C199.891 310.34 194.109 302.552 200.363 299.602C206.617 296.652 211.573 309.16 211.573 311.166C211.573 313.408 226.441 318.836 230.217 315.886Z" fill="#18191E" stroke="#263238" stroke-miterlimit="10"/>
<path d="M234.701 308.334L205.673 341.964C205.673 341.964 198.593 341.138 193.637 337.362C188.681 333.586 184.551 324.5 184.551 324.5C184.551 324.5 205.673 301.254 216.529 294.646C225.969 288.864 229.037 287.802 229.627 287.684C229.273 286.268 228.919 284.852 228.447 283.436C226.205 284.38 219.597 287.802 208.977 296.298C197.413 305.738 172.987 330.164 166.851 336.3C166.969 337.48 167.441 338.424 168.385 339.014C171.335 340.666 191.985 361.434 198.593 360.962C199.891 360.844 201.189 360.49 202.487 359.782C203.785 354.59 205.909 346.802 207.679 343.498C209.803 339.604 231.161 316.476 236.943 310.222L234.701 308.334Z" fill="#FCFCFC" stroke="#263238" stroke-miterlimit="10" stroke-linecap="round" stroke-linejoin="round"/>
<path d="M197.886 313.88C197.886 313.88 194.11 300.664 199.184 298.068C204.14 295.59 210.394 301.018 211.22 306.8C212.046 312.582 209.096 319.662 209.096 319.662C209.096 319.662 212.046 325.444 210.748 331.698" fill="white"/>
<path d="M197.886 313.88C197.886 313.88 194.11 300.664 199.184 298.068C204.14 295.59 210.394 301.018 211.22 306.8C212.046 312.582 209.096 319.662 209.096 319.662C209.096 319.662 212.046 325.444 210.748 331.698" stroke="#263238" stroke-miterlimit="10"/>
<path d="M176.478 327.824C177.289 327.406 177.27 325.752 176.435 324.13C175.6 322.507 174.265 321.531 173.454 321.948C172.643 322.366 172.662 324.02 173.497 325.642C174.332 327.264 175.667 328.241 176.478 327.824Z" fill="#263238"/>
<path d="M165.79 316.476C165.79 316.476 166.262 310.694 173.224 311.874" stroke="#263238" stroke-miterlimit="10"/>
<path d="M246.384 314.824L215.114 364.738L227.386 373.706L256.178 319.426L246.384 314.824Z" fill="white" stroke="#263238" stroke-miterlimit="10"/>
<path d="M254.054 320.37C254.054 320.37 229.864 362.26 225.262 371.582C220.66 380.904 207.09 403.796 206.146 417.366C205.32 430.936 201.072 510.586 201.072 510.586H298.54C298.54 510.586 305.738 450.052 305.266 426.688C304.794 403.442 298.894 369.104 281.076 345.74C263.376 322.494 254.054 320.37 254.054 320.37Z" fill="white" stroke="#263238" stroke-miterlimit="10"/>
<path d="M262.55 326.624C262.55 326.624 248.154 353.764 238.36 369.34C228.566 385.034 215.94 401.908 212.518 411.702C209.096 421.496 209.096 425.626 209.096 425.626" stroke="#263238" stroke-miterlimit="10"/>
<path d="M137.588 433.414L126.142 424.918C126.142 424.918 120.596 410.994 117.292 407.1C113.87 403.324 109.268 404.15 106.318 400.728C103.368 397.306 99.9457 389.754 98.2937 388.928C96.6417 388.102 92.7477 390.226 92.7477 393.53C92.7477 396.952 96.5237 402.38 96.5237 403.678C96.5237 404.976 96.5237 404.976 96.5237 404.976C96.5237 404.976 82.1277 400.728 80.4757 402.026C78.8237 403.324 77.0537 407.572 78.3517 409.696C79.6497 411.82 82.1277 412.646 82.1277 414.298C82.1277 415.95 79.1777 421.496 80.8297 423.62C82.4817 425.744 85.0777 427.042 85.0777 427.042C85.0777 427.042 85.0777 435.066 87.6737 438.488C90.2697 441.91 109.74 444.388 115.64 445.214C121.54 446.04 138.886 454.536 138.886 454.536L137.588 433.414Z" fill="#E8E8E8" stroke="#263238" stroke-miterlimit="10" stroke-linecap="round" stroke-linejoin="round"/>
<path d="M249.806 360.609C249.806 360.609 231.634 369.459 224.79 392.823C218.064 416.069 213.816 440.259 213.816 440.259C213.816 440.259 209.568 439.433 209.568 441.911C209.568 444.507 209.096 445.687 209.096 445.687L135.464 431.763L133.812 466.455C133.812 466.455 229.51 484.273 234.584 484.273C239.658 484.273 245.204 482.621 246.856 478.373C248.508 474.125 276.12 412.293 276.12 412.293" fill="white"/>
<path d="M249.806 360.609C249.806 360.609 231.634 369.459 224.79 392.823C218.064 416.069 213.816 440.259 213.816 440.259C213.816 440.259 209.568 439.433 209.568 441.911C209.568 444.507 209.096 445.687 209.096 445.687L135.464 431.763L133.812 466.455C133.812 466.455 229.51 484.273 234.584 484.273C239.658 484.273 245.204 482.621 246.856 478.373C248.508 474.125 276.12 412.293 276.12 412.293" stroke="#263238" stroke-miterlimit="10"/>
<path d="M258.302 380.078C258.302 380.078 272.698 388.102 275.294 399.194" stroke="#263238" stroke-miterlimit="10"/>
<path d="M248.154 392.351C249.452 392.351 271.046 394.003 275.648 406.275" stroke="#263238" stroke-miterlimit="10"/>
<path d="M267.978 429.993C267.978 429.993 284.498 422.323 289.572 405.803" stroke="#263238" stroke-miterlimit="10"/>
<path d="M212.99 446.159C212.99 446.159 221.486 461.853 221.014 472.827" stroke="#263238" stroke-miterlimit="10"/>
<path d="M218.064 443.563C218.064 443.563 226.56 445.215 232.46 456.661" stroke="#263238" stroke-miterlimit="10"/>
<path d="M331.934 427.514H316.712C313.88 427.514 311.166 429.756 310.576 432.588L294.764 510.468H320.134L335.946 432.588C336.536 429.756 334.766 427.514 331.934 427.514Z" fill="#2D2E35" stroke="#263238" stroke-miterlimit="10"/>
<path d="M9.79419 510.468H584.454" stroke="#263238" stroke-miterlimit="10"/>
</svg>
