<svg width="42" height="42" viewBox="0 0 42 42" fill="none" xmlns="http://www.w3.org/2000/svg">
<path fill-rule="evenodd" clip-rule="evenodd" d="M27.0543 1C31.07 1 33.0773 1 35.239 1.68333C37.599 2.54233 39.4577 4.401 40.3167 6.761C41 8.92233 41 10.9303 41 14.9457V27.0543C41 31.07 41 33.0773 40.3167 35.239C39.4577 37.599 37.599 39.4577 35.239 40.3163C33.0773 41 31.07 41 27.0543 41H14.9457C10.93 41 8.92233 41 6.761 40.3163C4.401 39.4577 2.54233 37.599 1.68333 35.239C1 33.0773 1 31.07 1 27.0543V14.9457C1 10.9303 1 8.92233 1.68333 6.761C2.54233 4.401 4.401 2.54233 6.761 1.68333C8.92233 1 10.93 1 14.9457 1H27.0543Z" fill="#18191E" stroke="white"/>
<rect x="20.3335" y="6.3335" width="15.3333" height="15.3333" rx="4" fill="white"/>
</svg>
