<svg width="251" height="22" viewBox="0 0 251 22" fill="none" xmlns="http://www.w3.org/2000/svg">
<path d="M6.94081 19.8599C6.94081 20.8354 7.22226 21.0238 7.84768 21.182L8.81674 21.4024V21.8428H2.37601V21.4024L3.18895 21.2139C3.81437 21.0568 4.09582 20.7412 4.09582 19.8609V0.786729H3.40789C1.46946 0.786729 0.687926 3.96559 0.468982 7.33323H0V0.157475H11.0366V7.33355H10.5676C10.3487 3.96591 9.56717 0.787051 7.62873 0.787051H6.94081V19.8599ZM11.7246 21.402L12.4125 21.2129C13.0379 21.0558 13.3193 20.7408 13.3193 19.8599V2.10881C13.3193 1.22753 13.0379 0.944203 12.4125 0.786729L11.7246 0.597952V0.157152H17.8213V0.597952L17.1023 0.786729C16.5083 0.944203 16.1643 1.1959 16.1643 2.07718V10.3546H20.8856V2.07718C20.8856 1.1959 20.5416 0.944203 19.9476 0.786729L19.2286 0.597952V0.157152H25.3254V0.597952L24.6374 0.786729C24.0123 0.944203 23.7309 1.22753 23.7309 2.10881V19.8286C23.7309 20.7099 24.0123 21.0568 24.6374 21.2139L25.3254 21.4024V21.8428H19.2283V21.4024L19.9473 21.2455C20.5413 21.0884 20.8853 20.7415 20.8853 19.8609V11.0787H16.1643V19.8599C16.1643 20.7408 16.5083 21.0874 17.1023 21.2446L17.8213 21.402V21.8419H11.7246V21.402ZM30.4527 21.2136H32.6101C35.424 21.2136 35.9555 18.0031 36.3306 14.6671H36.7995V21.8422H26.013V21.402L26.7009 21.2136C27.3263 21.0561 27.6078 20.7408 27.6078 19.8602V2.14011C27.6078 1.25915 27.3263 0.944203 26.7009 0.786729L26.013 0.597952V0.157152H36.487V7.33323H36.018C35.6741 3.96559 35.0175 0.786729 32.6101 0.786729H30.4527V10.2604L31.4532 10.2288C32.7977 10.1342 33.2977 8.96993 33.6417 6.23123H34.1107V14.9808H33.6417C33.3606 11.5502 32.8288 11.0152 31.4218 10.9206L30.4527 10.889V21.2136ZM43.4846 3.05301C43.0781 1.19623 42.828 0.912902 42.234 0.755427L41.64 0.597952V0.157152H47.4868V0.597952L47.0178 0.692179C46.0173 0.912579 46.1109 1.91971 46.3924 3.27309L48.8623 15.6107L50.6757 5.79075L50.0192 2.42279C49.7692 1.22688 49.6752 0.849331 49.0501 0.691856L48.6437 0.59763V0.156829H54.3654V0.59763L53.6775 0.72348C52.6456 0.912257 52.802 2.04524 53.052 3.27276L55.4284 15.611L57.7733 3.93396C58.2108 1.51053 57.9922 0.912579 57.0543 0.723803L56.3977 0.597952V0.157152H60.6811V0.597952L60.0871 0.755427C59.3367 0.944203 59.1491 1.54216 58.7112 3.65096L54.8969 21.9687H54.0839L51.145 7.6798L48.4872 21.9687H47.4553L43.4846 3.05301ZM74.0626 21.2136H75.3131C77.9706 21.2136 78.7525 18.0338 79.065 14.6671H79.534V21.8422H63.5572V21.402L64.2137 21.2756C65.5581 21.0245 65.5581 20.6469 65.2142 18.7576L64.6202 15.925H60.7744L60.3679 18.066C59.8989 20.4895 60.149 21.0868 61.0872 21.2756L61.7438 21.402V21.8422H57.3979V21.402L57.9294 21.2449C58.7734 20.9932 58.9924 20.4895 59.4303 18.349L63.2446 0.0309786H64.1826L68.1845 18.9467C68.591 20.8983 68.7785 21.3065 69.904 21.3065C70.873 21.3065 71.217 20.8028 71.217 19.8596V2.10848C71.217 1.22721 70.9359 0.943881 70.3105 0.786406L69.6225 0.59763V0.157152H75.8132V0.629254L74.9689 0.81803C74.3438 0.943881 74.0623 1.22721 74.0623 2.10848L74.0626 21.2136ZM60.8997 15.2015H64.464L62.6506 6.26349L60.8997 15.2015ZM84.6617 21.2136H85.9122C88.57 21.2136 89.3515 18.0338 89.6641 14.6671H90.133V21.8422H80.2219V21.402L80.9098 21.2136C81.5353 21.0561 81.8167 20.7408 81.8167 19.8602V2.10881C81.8167 1.22753 81.5353 0.944203 80.9098 0.786729L80.2219 0.597952V0.157152H86.4126V0.629254L85.5686 0.81803C84.9431 0.943881 84.6617 1.22721 84.6617 2.10848V21.2136ZM100.328 21.9681C98.5151 21.9681 97.89 20.7099 97.296 20.7099C96.952 20.7099 96.5456 20.8041 96.233 21.8428H95.858V14.6665H96.3269C96.7023 18.7266 98.2032 21.2752 100.298 21.2752C101.705 21.2752 102.674 19.9848 102.674 17.6559C102.674 12.7458 95.7019 10.6373 95.7019 5.19215C95.7019 2.26531 97.2027 0.0303333 99.8602 0.0303333C101.58 0.0303333 101.955 1.16331 102.674 1.16331C103.081 1.16331 103.362 0.848686 103.518 0.156184H103.893V7.33226H103.424C103.049 3.71292 102.08 0.722835 99.8284 0.722835C98.2654 0.722835 97.9525 2.29629 97.9525 3.36667C97.9525 8.05638 104.925 9.66146 104.925 16.2076C104.924 19.5453 103.111 21.9681 100.328 21.9681ZM111.834 19.8599C111.834 20.7408 112.115 21.0558 112.741 21.2129L113.554 21.402V21.8419H107.269V21.402L108.082 21.2129C108.708 21.0558 108.989 20.7408 108.989 19.8599V0.786729H108.301C106.363 0.786729 105.581 3.96559 105.362 7.33323H104.893V0.157475H115.931V7.33355H115.461C115.242 3.96591 114.461 0.787051 112.522 0.787051H111.834L111.834 19.8599ZM116.618 21.402L117.305 21.2129C117.931 21.0558 118.212 20.7408 118.212 19.8599V2.10881C118.212 1.22753 117.931 0.944203 117.305 0.786729L116.618 0.597952V0.157152H122.589C125.247 0.157152 127.717 1.85678 127.717 5.4132C127.717 8.15158 126.435 10.0716 123.84 10.7641C126.685 11.2988 126.685 12.6528 126.967 16.2715L127.154 19.0412C127.248 20.5834 127.311 20.9303 127.748 20.9303C128.217 20.9303 128.405 19.8605 128.405 18.8215V18.2864H128.936V19.0099C128.936 20.7412 128.561 21.9684 126.779 21.9684C125.028 21.9684 124.216 20.9612 124.09 17.3422L123.934 13.3137C123.872 11.3937 123.403 11.1104 122.496 11.1104H121.026V19.8602C121.026 20.7412 121.308 21.0877 121.933 21.2449L122.621 21.4024V21.8422H116.618L116.618 21.402ZM121.026 10.4808H122.058C123.809 10.4808 124.684 10.0087 124.684 5.82269C124.684 1.63671 123.527 0.787051 122.277 0.787051H121.026L121.026 10.4808ZM133.563 21.2136H135.72C138.534 21.2136 139.066 18.0031 139.441 14.6671H139.91V21.8422H129.123V21.402L129.811 21.2136C130.436 21.0561 130.718 20.7408 130.718 19.8602V2.14011C130.718 1.25915 130.436 0.944203 129.811 0.786729L129.123 0.597952V0.157152H139.598V7.33323H139.128C138.785 3.96559 138.128 0.786729 135.72 0.786729H133.563V10.2604L134.564 10.2288C135.908 10.1342 136.409 8.96993 136.752 6.23123H137.222V14.9808H136.752C136.471 11.5502 135.94 11.0152 134.532 10.9206L133.563 10.889V21.2136ZM145.163 21.2136H147.321C150.134 21.2136 150.666 18.0031 151.04 14.6671H151.509V21.8422H140.723V21.402L141.411 21.2136C142.036 21.0561 142.318 20.7408 142.318 19.8602V2.14011C142.318 1.25915 142.036 0.944203 141.411 0.786729L140.723 0.597952V0.157152H151.198V7.33323H150.729C150.385 3.96559 149.728 0.786729 147.321 0.786729H145.163V10.2604L146.164 10.2288C147.508 10.1342 148.008 8.96993 148.352 6.23123H148.822V14.9808H148.352C148.071 11.5502 147.539 11.0152 146.132 10.9206L145.163 10.889V21.2136ZM159.139 19.8599C159.139 20.8354 159.421 21.0238 160.046 21.182L161.015 21.4024V21.8428H154.574V21.4024L155.387 21.2139C156.011 21.0568 156.294 20.7412 156.294 19.8609V0.786729H155.606C153.667 0.786729 152.886 3.96559 152.667 7.33323H152.198V0.157475H163.235V7.33355H162.766C162.547 3.96591 161.765 0.787051 159.827 0.787051H159.139V19.8599ZM176.306 16.8385C176.306 20.2068 174.617 21.9681 172.023 21.9681C169.679 21.9681 168.303 20.0487 168.333 17.9399C168.365 16.3035 169.553 15.4854 170.522 15.611C171.21 15.7052 171.898 16.2089 171.804 17.3106C171.71 18.8844 170.021 18.8215 169.959 19.797C169.897 20.3952 170.678 21.2762 171.678 21.2762C173.429 21.2762 173.429 19.0415 173.429 17.3422V2.07718C173.429 1.1959 173.147 0.944203 172.46 0.786729L171.679 0.597952V0.157152H177.839V0.597952L177.151 0.786729C176.526 0.944203 176.307 1.22753 176.307 2.10881L176.306 16.8385ZM183.591 22C179.933 22 178.151 17.0273 178.151 10.9839C178.151 4.97272 179.87 0 183.591 0C187.281 0 189.063 4.97272 189.063 10.9839C189.063 17.0273 187.375 22 183.591 22ZM183.591 0.723803C182.028 0.723803 181.247 1.98263 181.247 10.8587C181.247 20.017 181.965 21.3078 183.591 21.3078C185.217 21.3078 185.967 20.017 185.967 10.7951C185.967 1.98296 185.217 0.723803 183.591 0.723803ZM201.444 21.402L202.132 21.2129C202.757 21.0558 203.038 20.7408 203.038 19.8599V2.10881C203.038 1.07005 202.569 0.692502 201.475 0.692502C200.1 0.692502 199.756 1.32208 199.756 3.11594V16.7756C199.756 20.1748 198.568 22 195.66 22C192.659 22 190.908 20.1748 190.908 16.8701V2.10881C190.908 1.22753 190.689 0.944203 190.064 0.786729L189.376 0.597952V0.157152H195.598V0.597952L194.754 0.786729C194.066 0.944203 193.785 1.1959 193.785 2.07718V17.0902C193.785 20.1432 194.66 20.9299 196.254 20.9299C198.131 20.9299 198.912 19.8599 198.912 16.7753V4.24891C198.912 1.60508 198.881 0.975505 197.756 0.723803L197.162 0.597952V0.157152H207.417C210.074 0.157152 212.544 1.85678 212.544 5.4132C212.544 8.15158 211.263 10.0716 208.667 10.7641C211.513 11.2988 211.513 12.6528 211.794 16.2715L211.982 19.0412C212.075 20.5834 212.137 20.9303 212.576 20.9303C213.045 20.9303 213.233 19.8605 213.233 18.8215V18.2864H213.764V19.0099C213.764 20.7412 213.389 21.9684 211.607 21.9684C209.856 21.9684 209.043 20.9612 208.917 17.3422L208.761 13.3137C208.699 11.3937 208.23 11.1104 207.323 11.1104H205.854V19.8602C205.854 20.7412 206.135 21.0877 206.761 21.2449L207.448 21.4024V21.8422H201.445V21.4024L201.444 21.402ZM205.852 10.4808H206.884C208.635 10.4808 209.51 10.0087 209.51 5.82269C209.51 1.63671 208.354 0.787051 207.103 0.787051H205.852V10.4808ZM214.325 0.723803L213.888 0.597952V0.157152H217.983L223.58 14.4461V4.15437C223.58 1.82548 223.642 1.00713 221.985 0.723803L221.454 0.597952V0.157152H226.081V0.597952L225.644 0.723803C224.3 1.03843 224.394 2.14011 224.394 4.34314V21.8425H223.394L216.39 4.50094V17.8456C216.39 20.3949 216.39 21.1194 218.391 21.402V21.8419H213.888V21.402L214.451 21.3075C215.607 21.0865 215.577 19.9541 215.577 17.6569V2.61221C215.044 1.51085 214.826 0.912579 214.325 0.723803ZM241.839 21.2136H243.09C245.747 21.2136 246.529 18.0338 246.842 14.6671H247.311V21.8422H231.365V21.402L232.022 21.2756C233.366 21.0245 233.398 20.6469 233.022 18.7576L232.428 15.925H228.583L228.175 18.066C227.706 20.4895 227.957 21.0868 228.895 21.2756L229.551 21.402V21.8422H225.205V21.402L225.736 21.2449C226.581 20.9932 226.799 20.4895 227.237 18.349L231.051 0.0313013H231.99L235.991 18.947C236.399 20.8986 236.554 21.3069 237.68 21.3069C238.649 21.3069 238.994 20.8031 238.994 19.8599V2.10848C238.994 1.22721 238.712 0.943881 238.087 0.786406L237.399 0.59763V0.157152H243.59V0.629254L242.746 0.81803C242.12 0.943881 241.839 1.22721 241.839 2.10848L241.839 21.2136ZM228.707 15.2015H232.272L230.459 6.26317L228.707 15.2015ZM251 20.4575C251 21.3075 250.375 21.9371 249.624 21.9371C248.874 21.9371 248.249 21.3075 248.249 20.4575C248.249 19.6079 248.874 18.9783 249.624 18.9783C250.375 18.9783 251 19.6082 251 20.4575Z" fill="#2F2F2F"/>
</svg>
